<svg xmlns="http://www.w3.org/2000/svg" xml:space="preserve" fill-rule="evenodd" clip-rule="evenodd" image-rendering="optimizeQuality" shape-rendering="geometricPrecision" text-rendering="geometricPrecision" viewBox="0 0 2062 2062">
  <path fill="#004B8B" d="M1031 0a1031 1031 0 1 0 0 2062 1031 1031 0 0 0 0-2062z"/>
  <path fill="#fff" d="M1031 1791a760 760 0 1 1 0-1520 760 760 0 0 1 0 1520zm-861-456-11-34 54 1-43 33zm-70-60 8 24 30 1 16 48-24 19 9 26 102-85-9-27-132-6z"/>
  <path fill="#fff" d="m237 1432 3 7c6 11 14 22 28 15 13-7 8-20 2-30l-4-8-29 16zm35-47 12 24c13 23 28 51-2 67-13 7-28 4-37-9h-1c3 6-1 13-5 18l-33 40-13-25 27-31c6-7 8-12 3-21l-4-7-45 24-12-22 110-58zm104 206c-3-11-9-22-14-30-18-22-43-23-63-8s-26 39-10 60c4 6 8 9 11 12l26-19-16-21 16-12 30 40-53 40c-11-8-21-17-29-28-25-32-26-66 7-91 34-26 69-20 94 13 9 12 14 22 18 32l-17 12zm54 24 53 50-13 14-35-33-21 22 32 30-13 14-32-30-24 25 35 34-13 14-54-51zm88 79 26 17-14 103 1 1 52-77 19 13-69 103-25-18 13-102-1-1-52 77-19-14zm139 108-32-15 8-18 87 41-8 17-32-15-44 94-23-10zm98 19 24 8-39 117-24-7zm69 23 30 5 29 100h1l17-91 23 5-23 121-29-6-30-99-17 90-24-4zm157 85c0-22 11-44 35-44 25 0 34 23 34 45s-10 44-35 44c-26-1-35-23-34-45zm-26-1c-1 38 20 65 59 65 39 1 61-26 62-63s-21-64-59-64c-40-1-62 24-62 62zm224-50c-8-2-17-3-25-2-9 2-19 7-17 20 3 21 55 5 61 46 3 27-17 40-41 43-14 2-20 1-32 0l-1-22c9 3 19 5 29 3 9-1 21-7 19-18-3-24-55-7-61-47-3-28 16-41 38-44 10-1 21-1 30 1v20zm147 45c3 0 7 0 12-2 15-6 10-18 7-26l-28-77 23-9 33 89c4 12 3 32-21 41-7 2-12 4-19 4l-7-20zm58-132 22-11 34 62c10 19 23 28 40 19 16-9 15-25 5-43l-34-63 22-12 38 70c16 29 6 50-22 65s-51 12-67-17l-38-70zm128-74 24-18 95 42-58-72 19-15 77 97-24 19-94-43h-1l58 72-18 15zm116-99 17-18 89 85-17 18zm110-31c-18-13-30-34-16-54 15-20 39-15 57-3 18 14 30 34 15 55-14 20-38 15-56 2zm-15 21c30 22 64 20 87-12 23-31 14-65-16-87-30-21-65-19-87 12-23 32-15 64 16 87zm98-167 3-7c6-11 10-24-3-31-14-7-21 5-27 16l-3 8 30 14zm-59-1 12-24c12-24 25-52 56-37 13 6 20 20 15 35v1c3-6 11-7 17-6l52 3-12 25-41-4c-10-1-15 1-19 10l-4 7 46 23-11 22-111-55zm96-173c-5 7-10 14-13 22-2 9-2 20 11 24 20 7 28-47 68-35 25 9 28 32 21 56-4 13-8 18-14 29l-21-9c7-7 13-15 16-25 3-9 2-22-8-25-23-8-30 47-69 34-27-8-30-32-23-53 4-10 8-19 14-26l18 8zM130 806h-1l46 30 8-35-53 5zm-28 7 7-27 132-17-7 26-30 4-12 48 25 18-7 25-108-77zm87-182c-6 6-11 13-15 21-3 8-4 20 8 25 20 9 33-45 71-28 25 11 26 34 16 57-5 13-9 17-17 27l-20-11c8-6 15-13 19-22 3-9 4-22-6-27-22-9-35 45-72 28-26-11-26-35-18-54 5-10 10-19 16-26l18 10zm76-59c-18-12-31-33-18-53 14-21 38-17 56-5 19 12 32 32 18 53s-37 17-56 5zm-14 21c31 21 65 18 87-15 21-33 10-66-21-86s-65-17-86 16c-22 33-12 65 20 85zm203-163-16 23c-28 29-61 36-92 8-31-29-31-64-2-95 5-6 14-13 22-17l15 16c-11 3-17 8-23 15-18 18-14 43 4 61 19 17 43 18 61-1 7-7 13-17 15-24l16 14zm-42-125 19-16 79 95-19 16zm169-28-31 19-11-53 42 34zm-42 82 22-13-6-30 42-27 24 19 24-15-107-79-24 15 25 130zm223-117c-7 5-15 10-24 14-37 15-71 7-86-32-16-39-1-70 37-86 8-3 18-6 28-6l6 20c-10-2-19 0-27 4-23 10-31 34-21 57 9 23 31 35 55 25 9-4 19-10 24-15l8 19zm8-129 24-6 32 119-24 7zm117 36c-3-21 4-45 29-48 24-3 37 18 40 40 2 22-4 46-29 49s-37-18-40-41zm-26 4c5 37 29 61 68 56s57-34 53-71c-5-37-30-61-68-56-39 5-57 33-53 71zm182-77 30 2 41 95 6-92 24 1-8 124-30-2-41-96h-1l-6 93-23-2zm294 132-34-12 34-43v55zm-91 18 24 9 20-23 47 16 1 30 26 10-5-133-27-9-86 100zm209-28-32-17 10-17 84 45-9 17-31-17-49 92-22-11zm110 42 20 14-61 85 39 28-12 15-59-42zm102 79 53 51-14 14-34-34-22 22 32 31-13 14-32-31-24 25 35 34-14 14-53-51zm96 131-22-28 15-12 59 75-15 12-22-28-82 64-16-20zm80 80 13 21-106 64-13-21zm-29 214c-6-7-11-16-15-24-16-37-9-70 30-87 38-17 71-3 87 36 4 7 6 18 7 27l-20 7c1-11-1-19-5-27-10-24-34-30-57-20s-35 32-24 56c4 9 10 19 16 23l-19 9zm75 100-8-35 54 5v1l-46 29zm-65-67 6 26 31 3 11 49-25 17 6 27 109-76-6-27-132-19z"/>
  <path fill="#D9322B" d="M1563 1381H497V642h1066z"/>
  <path fill="#fff" d="M641 671H525v106l897 576h113v-108zm-470 378a34 34 0 1 0-67 0 34 34 0 0 0 67 0zm1789-2a28 28 0 1 0-57 0 28 28 0 0 0 57 0z"/>
  <path fill="#004B8B" d="M690 510h23l17 55h1l17-55h24v73h-15v-61l-19 61h-14l-20-61v61h-14zm109 0h43v11h-28v18h26v12h-26v20h28v12h-43zm68 0h18l28 54v-54h14v73h-18l-28-55v55h-14zm127 13-15-3c-5 0-12 2-12 10 0 13 32 8 32 32 0 16-12 22-27 22-8 0-12-1-19-3l1-13c5 3 11 5 17 5 5 0 13-3 13-10 0-14-32-8-32-32 0-17 12-23 25-23 7 0 12 1 18 3l-1 12zm108 0-15-3c-5 0-11 2-11 10 0 13 32 8 32 32 0 16-13 22-28 22-8 0-11-1-19-3l2-13c5 3 10 5 16 5s13-3 13-10c0-14-32-8-32-32 0-17 13-23 26-23 6 0 12 1 17 3l-1 12zm59 1h-1l-10 31h21l-10-31zm-9-14h17l29 73h-17l-6-17h-29l-7 17h-15l28-73zm65 0h18l28 54v-54h14v73h-18l-28-55v55h-14zm116 14-11 31h22l-11-31zm-8-14h17l28 73h-16l-6-17h-30l-6 17h-15l28-73zm-357 930h15v73h-15zm40 0h18l28 54v-54h14v73h-18l-27-55h-1v55h-14zm-394 143c-5-3-10-5-14-9-18-15-23-35-8-54 16-19 37-20 56-4 4 3 8 8 11 13l-8 8-10-13c-12-9-27-6-36 5-10 12-10 26 2 36 5 4 11 7 15 8l-8 10zm89-29c19 12 22 32 10 51-11 19-31 26-50 13-20-12-22-32-10-51s30-25 50-13zm-34 55c13 8 24-1 31-12s9-25-3-33-25 0-31 11c-7 11-10 26 3 34zm81 9 5 2c6 3 14 5 18-3s-3-12-10-15l-4-2-9 18zm0-35 15 7c14 6 31 13 23 32-4 8-12 12-21 9 3 2 4 7 4 10l-2 31-15-6 2-25c0-6 0-8-6-11l-4-2-13 28-13-7 30-66zm78 45 5 2c7 2 12 7 10 15-3 8-10 8-17 6l-5-2 7-21zm-33 54 14 5 9-27 5 2c16 5 29 3 35-13 5-17-7-26-23-31l-17-6-23 70zm93-11c3-13 11-25 26-22 14 3 17 17 15 30-3 13-11 25-25 22-15-3-18-17-16-30zm-15-3c-4 22 5 40 29 44 22 4 38-9 42-31 4-21-6-39-28-43-23-5-38 8-43 30zm113-8h5c7 0 15 2 15 10 0 10-9 10-16 10h-5l1-20zm-18 61h15l1-30h5c6 1 8 3 10 8l8 24 16 1-10-30c-2-3-4-7-8-8 10-1 16-7 16-16 1-20-17-21-33-22l-16-1-4 74zm79-71 43-3 1 12-28 1 1 18 26-1v11l-26 2 1 21 29-2 1 11-43 3zm151-9c-5-1-11-1-16 1-5 1-10 5-8 12 2 13 32 0 38 24 4 15-7 24-21 28-8 2-12 1-19 1l-2-13c5 2 11 2 17 1 5-2 12-6 11-13-4-13-34 0-39-24-4-15 7-24 19-27 7-2 12-2 18-2l2 12zm54-16 1 32 20-8-21-24zm-12-11 15-6 53 59-16 5-11-13-28 10v18l-15 5 2-78zm58-24 16-8 51 35v-1l-26-48 12-6 35 64-16 9-51-35 26 48-12 7zm106-20c-8-10-11-24 1-33 11-8 24-1 32 9 8 11 11 25-1 33-12 9-25 2-32-9zm-13 9c14 19 33 24 52 10 18-14 19-34 6-52s-33-23-51-9c-19 14-20 33-7 51z"/>
</svg>
