<svg xmlns="http://www.w3.org/2000/svg" xml:space="preserve" viewBox="0 0 700 700">
  <defs>
    <clipPath id="a" clipPathUnits="userSpaceOnUse">
      <path d="M0 842h595V0H0Z"/>
    </clipPath>
  </defs>
  <g clip-path="url(#a)" transform="matrix(.6595 0 0 -.6595 152 628)">
    <path fill="#15155c" d="m540 525-2-4c-5-4-9-5-15-4-17 2-29 18-39 30l-2 3 4 4c7-8 14-16 23-22 3-2 6-5 10-5l5 2 5 4c3 1 5 0 7-1 2-2 5-4 4-7m-42-3c-2 0-3 2-5 3l-4 2h-5c1-3 1-5-1-8-3-6-13-7-19-6l-11 5c-7 5-14 12-17 20a56 56 0 0 0-3 26l1 2c5 3 10 1 10 1s6-13 19-24c14-10 34-13 34-13l5-5-4-3m-77 44c-3 1-5 2-5 6 0 8 11 8 11 8s27 2 46-15l-4-6-10 7c-7 4-14 5-21 4-6-1-11-4-17-4m59-17-6-10-10 6 6 10zm5 8-4-7-10 6 4 8zm-8 12c3 12 11 17 11 17l10-6c-1-9-8-16-11-20l-1-1-10 6 1 4m23 38 10-6c-1-9-11-19-11-19l-10 6c0 12 11 19 11 19m18 22c12-6-6-25-7-26l-10 7s6 24 17 19m13-89c-3 0-8-3-12-7 0 0-3-1-17 13l-11 10c10 6 13 22 13 22a34 34 0 0 1 12 21c1 1 24 26 5 35s-26-22-26-22c-12-11-12-22-12-22-8-7-11-13-11-17-6 4-12 8-18 10-22 7-36 1-36 1s-9-3-9-14c1-11 16-10 18-9 0 0-4-25 16-43-15-25-122-207-211-345-28-47-42-73-69-122l7-5 81 113c68 95 155 238 210 349 25-8 50 7 50 7s19-10 30 1c0 0 5 3 5 11s-12 13-15 13"/>
    <path fill="#15155c" d="m450 533 1-5c-18 10-13 37-13 37 8-20 20-23 20-23h-7l-3-2 2-7"/>
    <path fill="#121a61" d="m128 529-2 1c-1 1-5 3-5 9l1 1 3 2 6 3c2 1 4 0 5-2 2-1 3-3 3-7v-1l-6-4-5-2m-5-2a68 68 0 0 0-14-2c-13-2-25 5-33 16l-4 5a11 11 0 0 0-7 20 61 61 0 0 0 0 7c0 15 4 26 11 33l2 1 3 2a13 13 0 0 1 4-3l-1-1-1-2-5-7a42 42 0 0 1-5-27h3v-1h2v-1h1l1-1h1v-1a12 12 0 0 0 2-3v-1l1-1v-2l-2-7 4-4c6-7 14-11 22-12h1a18 18 0 0 1 10 3c0-4 4-8 6-10l-2-1M72 631a8 8 0 1 0 16-1 19 19 0 0 1-9-6l-3 1c-2 1-4 3-4 6m19-4h1l6-3 1-4-1-3-2-2c-2-2-5-3-7-3h-3l-4 2-2 2v3a8 8 0 0 0 2 5l2 2a10 10 0 0 0 5 1h2m-12-53v2a43 43 0 0 0 5 20 164 164 0 0 1 27-55l-8 1c-5 2-10 5-14 10l1 6c0 7-4 13-11 16m21 36 2-2a187 187 0 0 0 30-58v-3h-2l-6-2-1 5s-3-6-5-4c-2 0-3 2-2 8 2 7 1 8 1 8s-2-6-7-5 0 19 0 20c0 0-4-9-7-8-4 2-2 8-2 11l3 10c-1 0-6-10-9-6-2 3 3 19 3 19-4-7-6-6-6-6-2 0-2 3-2 6v2a13 13 0 0 1 2 0c4 1 6 2 8 5m54-56c7-2 5-13 5-13s-1-4-6-4l-4 2 3 4-1 1-10-6c0 3-1 7-5 9 0 0 12 8 18 7m214-384L144 533h1c4-1 16-6 20 5 3 13-5 20-5 20-9 5-19-1-23-4l-1 2v2a158 158 0 0 1-29 53l-1 1v7l-2 7c-2 4-6 7-11 7 0 7-5 12-13 12a13 13 0 0 1-6-25l-1-3 1-5c-10-9-16-23-16-41v-3c-2-3-3-7-3-10 0-8 6-15 13-17 10-15 27-25 43-22a125 125 0 0 1 17 4l33-63 45-68c12-42 84-154 142-238l79-108 7 5z"/>
    <path fill="#15155c" d="M170 278c-16 1-27 3-34 5 9-9 17-23 23-42 0 0-60-21-85 59 0 0 14 5 32 1-27 25-35 68-35 68 11 0 22-4 32-9-19 25-14 59-14 59l23-13c-21 27-25 70-25 70 53-33 80-91 80-91-14-3-26-1-35 4 30-31 42-68 42-68-17 3-30 7-38 12 22-26 34-55 34-55"/>
    <path fill="#039d53" d="M152 245c-9 2-48-10-69 51 25 4 50-8 68-48a77 77 0 0 0-6 3l-4 2-6 3c0 2-2 7-7 12 0 0 4-7 3-9l-6 3-5 4c0 1-1 6-3 8 0 0 2-5 1-7l-3 2-4 4-4 2v6l-1-5-3 3-2 2-2 2 2-2 2-2 3-3h-4l5-1 3-2 5-4 3-2c-1-1-3-2-7 0 0 0 4-3 8-2h1l5-4 5-3c-2-2-6-2-10 0 1-1 9-5 15-3a560 560 0 0 1 13-8l3-1 1-1"/>
    <path fill="none" stroke="#15155c" stroke-miterlimit="10" stroke-width=".3" d="M152 245c-9 2-48-10-69 51 25 4 50-8 68-48a77 77 0 0 0-6 3l-4 2-6 3c0 2-2 7-7 12 0 0 4-7 3-9l-6 3-5 4c0 1-1 6-3 8 0 0 2-5 1-7l-3 2-4 4-4 2v6l-1-5-3 3-2 2-2 2 2-2 2-2 3-3h-4l5-1 3-2 5-4 3-2c-1-1-3-2-7 0 0 0 4-3 8-2h1l5-4 5-3c-2-2-6-2-10 0 1-1 9-5 15-3a560 560 0 0 1 13-8l3-1 1-1Z"/>
    <path fill="#039d53" d="m140 296 18-11c-30 1-63 20-79 77 43-6 68-53 80-75-4 1-10 4-18 10 0 2-1 7-6 12 0 0 3-6 2-9l-10 9c0 2-1 8-5 15 0 0 2-9 1-12l-13 15c0 1 0 5-5 12l2-9a428 428 0 0 0 0-1l-11 3s9-8 13-6l14-15c-1 0-4-1-13 3 0 0 8-6 17-6l9-9h-9s9-4 13-3m19 34c-62 17-64 65-64 79 39-20 59-58 68-78-4 2-12 7-23 18 0 2 0 7-3 12l-1-4v-4l-9 10c1 2 2 7-1 12 0 0 0-7-2-8l-9 12v8l-2-6-4 6 4-6-7 2c1-1 6-5 8-4l9-13c-1 0-3-1-9 1 0 0 2-5 12-5l9-10c-1-1-3-1-9 1 0-1 8-6 13-5l20-18m-20 71c4-3 10-9 16-11-41-2-53 48-60 72 32-23 53-55 62-71-4 2-10 5-17 12 0 2-1 7-5 11l2-8-10 10c1 1 1 5-1 9v-7l-10 12c1 4-1 8-1 8 1-3 0-5-1-5a431 431 0 0 0 0-1c-2-1-5 1-5 1 3-3 5-3 7-3l8-12s-1-2-7 1c0 0 4-5 9-4l10-11h-9s7-4 12-3"/>
    <path fill="#15155c" d="M427 278c15 1 26 3 34 5-9-9-17-23-23-42 0 0 59-21 84 59 0 0-14 5-31 1 27 25 35 68 35 68-12 0-22-4-32-9 18 25 14 59 14 59l-23-13c21 27 25 70 25 70-53-33-80-91-80-91 14-3 25-1 35 4-30-31-43-68-43-68 18 3 30 7 39 12-22-26-34-55-34-55"/>
    <path fill="#607f4e" d="M444 245c9 2 49-10 70 51-26 4-50-8-68-48a77 77 0 0 1 5 3l5 2 5 3c1 2 2 7 8 12 0 0-4-7-3-9l5 3 6 4 2 8v-7l3 2 4 4 3 2 1 6v-5l3 3 3 2 2 2-2-2-3-2-3-3h5l-6-1-3-2-4-4-3-2c1-1 3-2 6 0 0 0-3-3-8-2l-5-4-5-3h-1c2-2 6-2 11 0-1-1-10-5-15-3a560 560 0 0 0-14-8l-3-1-1-1"/>
    <path fill="#039d53" stroke="#15155c" stroke-miterlimit="10" stroke-width=".3" d="M444 245c9 2 49-10 70 51-26 4-50-8-68-48a77 77 0 0 1 5 3l5 2 5 3c1 2 2 7 8 12 0 0-4-7-3-9l5 3 6 4 2 8v-7l3 2 4 4 3 2 1 6v-5l3 3 3 2 2 2-2-2-3-2-3-3h5l-6-1-3-2-4-4-3-2c1-1 3-2 6 0 0 0-3-3-8-2l-5-4-5-3h-1c2-2 6-2 11 0-1-1-10-5-15-3a560 560 0 0 0-14-8l-3-1-1-1Z"/>
    <path fill="#039d53" d="m457 296-18-11c30 1 63 20 79 77-43-6-69-53-80-75 4 1 10 4 18 10 0 2 1 7 5 12 0 0-2-6-1-9l9 9c0 2 1 8 6 15l-2-12 14 15c0 1-1 5 4 12 0 0-2-8-1-9a428 428 0 0 1 0-1l10 3s-8-8-13-6c-3-5-8-10-13-15 1 0 4-1 12 3 0 0-7-6-16-6l-9-9h9s-9-4-13-3m-19 34c61 17 64 65 64 79-40-20-60-58-68-78 4 2 12 7 23 18 0 2 0 7 3 12l1-4v-4l9 10c-1 2-2 7 0 12 0 0 1-7 3-8l9 12v8l2-6 4 6-4-6 6 2c0-1-5-5-7-4l-9-13c1 0 3-1 9 1 0 0-3-5-12-5l-9-10c1-1 3-1 9 1-1-1-8-6-13-5l-20-18m20 71c-4-3-10-9-16-11 41-2 53 48 59 72-31-23-52-55-61-71 4 2 10 5 17 12 0 2 1 7 4 11l-1-8 9 10c0 1-1 5 2 9v-7l10 12v8l1-5a431 431 0 0 1 1-1c2-1 4 1 5 1-3-3-6-3-7-3l-8-12s1-2 7 1c0 0-5-5-10-4l-9-11h8s-6-4-11-3"/>
    <path fill="#15155c" d="M235 419c-8 5-13 12-17 21-33 36-15 101-15 101l16-14 7 27c80-79 9-135 9-135"/>
    <path fill="#039d53" d="M233 452h-3l-3 14c2 1 4 5 3 9 0 0-2-4-4-4l-4 14c2 1 5 5 4 10 0 0-2-6-5-6l-3 9 2 10-3-6a495 495 0 0 1-1 1v-1l-6 3 7-7 2-7 1-2c-1-1-3-2-9 2 0 0 4-5 10-7a644 644 0 0 0 3-13c-1-1-3-1-7 2 0 0 3-6 8-8l2-6v-6l1-1c-6-1-11-4-13-8-18 44-9 87-9 87 29-22 30-55 27-79"/>
    <path fill="#039d53" d="M258 455a18 18 0 0 1-11 1v11l-1 2c2 1 6 4 7 8 0 0-4-4-7-3l-1 6v7l-2 7-1 6-1 6-2 6v2c1 1 3 4 2 8l-3-5-1 3-1 3 1-3 1-3-6 3c0-1 2-5 7-6v-2l1-6 2-6 1-7 1-6v-7l1-6c-1-1-4-1-7 4 0-1 2-6 7-9v-13a22 22 0 0 1-10-8c3 19 3 45-11 66 1 18 5 29 5 29 31-34 33-66 29-88"/>
    <path fill="#15155c" d="M362 419c8 5 13 12 17 21 34 37 15 102 15 102l-16-14-7 27c-81-80-9-136-9-136"/>
    <path fill="#039d53" d="m364 452 3 1 3 13c-2 2-4 5-3 10l4-5 4 14c-2 2-5 5-4 10 0 0 2-6 5-6l3 10-2 9 4-5v-1l6 3-7-7-2-6-1-3c1-1 3-1 9 3 0 0-3-6-10-8a642 642 0 0 1-3-13c1-1 3-1 7 2 0 0-3-6-8-7v-1l-1-6-1-5-1-2c6 0 11-4 13-8 18 45 9 87 9 87-29-22-30-55-27-79"/>
    <path fill="#039d53" d="M339 455a18 18 0 0 0 11 2v12c-1 1-5 4-6 8 0 0 4-4 7-3v6l1 7 1 7 2 7 1 6 1 5 1 3c-1 0-3 4-2 7 0 0 2-5 3-4l1 2 1 3-1-3-1-2c0-1 2-1 6 2 0 0-2-4-7-6v-2l-2-5-1-7-1-6-1-7v-7l-1-6c1 0 4 0 7 4 0 0-2-6-7-9v-13a23 23 0 0 0 10-7c-3 19-3 44 11 65-1 18-5 29-5 29-32-34-34-66-29-88"/>
    <path fill="#121a61" d="M420 686c-2 3-5 5-9 5l-4-1c-3 2-6 2-8 2l-5-1-4-1-3 1c-2 0-5-2-6-4h-2c-4 0-6-2-8-5-4 0-6-3-12-8-4-5-7-4-8-9l-5-7a64 64 0 0 1-7 9l8 11c2 6 2 11 2 16 3 2 6 5 8 9h4c4 0 8 2 10 6h2l2 1a76 76 0 0 1 11 0c3-4 9-6 17-6h2a8 8 0 0 1 8-6l3-4 4-5Zm-88 46a9 9 0 0 1-6-13c-3-2-5-5-5-8l1-3-2-14v-7c-7 5-13 8-19 8a57 57 0 0 1 6 17c3 2 5 5 5 9v3c4 0 8 3 8 7v2h1c3 0 6 3 7 6 4 1 7 3 8 7h1c2 0 5 1 6 3h7v-2c-5-1-10-4-12-9-3 0-6-3-6-6m-63-52-13-14 1 3-2 7 2 4c0 3-2 4-4 4l4 5c2 4 2 7 1 8h-1l3 6v11l2 2a2 2 0 0 1 2-1 14 14 0 0 1 0-2l-1-3 1-5 6-7v-3l7-8-8-7m180-45 2 7-2 7v3c0 5-3 8-6 10v5h5l-10 6c-1 5-4 8-8 8h-1l-2 1-3 4v1l2-1c4 0 8 3 10 8l2 1c3 2 5 6 5 10l-1 5c-1 2-1 4 1 5l1 5c0 4-1 7-3 9-2 1-2 2-2 4 0 4-2 6-4 7l-4 5c-1 3-3 7-8 7-1 3-4 6-8 6l-1-1c-2 3-6 5-10 5h-2c-3 2-6 4-11 4-4 0-8-2-11-4l-3 1c-5 0-9-3-11-6h-2c4 17-10 26-17 28-3 4-9 8-11 8l-3-1c0 3-2 4-5 4h-5l-5 2c-2 0-5-1-6-3h-3c-4 0-7-2-7-4l-5 1c-5 0-10-5-10-11l-3 1c-3 0-6-4-6-8h-3l-3 3-2-1c0 6-3 10-7 10l-4-1c-2 4-5 5-10 5-3 0-8-3-11-6l-3 1c-5 0-8-3-9-6h-2c-3 0-5-2-5-3l-2-2c-3 0-6-4-6-5v-1c-1 1-2 1-5-1-3-4-2-5-2-11v-5c-2 0-4-3-4-6l1-4c-3-2-5-5-5-9l1-5-5-7h3v-3c0-3 1-4 3-5l-1-4c0-6 3-9 5-11-2-4 2-8 4-9l-1-4c0-3 2-6 5-7a2 2 0 0 1-1-2l-12 3-10-2h-3c-5 0-11-6-11-6-1 1-3 0-4-1v3l-4-6-3-6c-5 0-6-2-7-5l-3-4a6 6 0 0 1-2-5c-3-2-4-5-4-8l1-8c2-2 1-5-1-7-1-1-2-2-2-5 1-8 6-9 6-9 0-3 2-5 4-7l3-4c0-3 3-6 6-6 2-1 4-3 4-5 1-2 4-5 10-7l8-3c3-2 7-3 11-3 12 0 17 5 17 13 0 3-2 6-4 8v1c0 4-1 7-4 9v4a9 9 0 0 1 3 10c3 0 6 3 6 7 3 0 6 3 7 6 0 1 2 2 3 1a20 20 0 0 1 13 0l2-3c-5-14-7-25-7-25-14-1-7-26-7-26 7-21 20-15 20-15 15-26 15-35 15-35 1-7-7-13-7-13l1-3c-6-9-21-14-21-14 23-31 24-51 24-51l83-3c1 25 24 53 24 53-10 4-20 12-20 12v6s-6 4-7 12 16 36 16 36c6-1 14-1 19 19 5 22-7 22-7 22a166 166 0 0 1-7 26 63 63 0 0 1 17 13 5 5 0 0 1 4 0 14 14 0 0 1 13-4l1-2a14 14 0 0 1-2-11h-4v-2c-2 0-3-2-4-3-12 0-17-3-17-8 0-3 5-9 10-15 5-4 8-9 14-9 4-1 11 1 11 1v-2l5 1 3-1c5 0 10 2 11 6h1c5 0 9 3 10 8h1c5 0 9 3 9 8 3 0 8 3 8 17v7"/>
    <path fill="#fff" d="m336 469-37 2-38-2c-3 7-7 16-14 26 8 4 18 11 23 19a55 55 0 0 1 57 0c5-8 15-15 23-19-5-7-10-16-14-26m-6 58c-6-7-18-12-31-12-14 0-26 5-33 13 0-11-13-22-31-30 9-12 14-22 18-30 5-12 5-19 5-19l81-3c0 7 2 15 5 22 6 14 15 26 18 30-18 8-32 19-32 29"/>
    <path fill="none" stroke="#15155c" stroke-miterlimit="10" stroke-width="1.6" d="m336 469-37 2-38-2c-3 7-7 16-14 26 8 4 18 11 23 19a55 55 0 0 1 57 0c5-8 15-15 23-19-5-7-10-16-14-26Zm-6 58c-6-7-18-12-31-12-14 0-26 5-33 13 0-11-13-22-31-30 9-12 14-22 18-30 5-12 5-19 5-19l81-3c0 7 2 15 5 22 6 14 15 26 18 30-18 8-32 19-32 29Z"/>
    <path fill="#fff" d="M307 664c0-9-4-17-8-17-5 0-8 8-8 17s3 16 8 16c4 0 8-7 8-16m15-12c-4-8-9-13-12-11-3 1-3 8 1 16 3 7 8 12 11 11 3-2 3-9 0-16m12-13c-3-6-9-10-11-9s-1 9 2 15 9 10 11 9c3-2 2-8-2-15m10-14c-4-6-8-8-11-7-2 2-1 7 3 13 4 5 9 8 11 6 2-1 1-6-3-12m7-10c-3-4-6-6-7-5-2 1-1 5 1 8 2 4 5 6 7 5s1-5-1-8m-76 37c4-8 9-13 12-11 3 1 3 8-1 16-3 7-8 12-11 11-3-2-3-9 0-16m-13-13c4-6 9-10 12-9 2 1 1 9-2 15s-9 10-12 9c-2-2-1-8 2-15m-9-14c4-6 8-8 11-7 2 2 1 7-3 13-4 5-9 8-11 6-2-1-1-6 3-12m-7-10c3-4 6-6 7-5 2 1 1 5-1 8-3 4-6 6-7 5-2-1-1-5 1-8"/>
    <path fill="#fff" d="M346 578c-8-6-21-14-37-19 0 0-10-4-28 1a96 96 0 0 0-38 24l4 4c13 10 54 36 103 0l4-4-8-6m19 21c-1 1-4 0-7-2-13 13-60 41-60 41s-48-31-59-41c-3 2-6 3-7 2-3-2-3-9 0-19 3-9 6-11 10-11l5 2c18-19 51-37 51-37s34 19 52 37l5-2c4 0 7 2 10 11 3 10 3 17 0 19"/>
    <path fill="#121a61" d="M299 51a250 250 0 0 1-173 136l8 17a271 271 0 0 1-22 274l78 43c13-21 25-44 34-68 36 11 75 9 75 9s39 2 74-9c9 24 21 47 35 68l78-43a295 295 0 0 1-50-156 290 290 0 0 1 35-135A243 243 0 0 1 298 50"/>
    <path fill="#fff" d="M299 74c-28 47-68 82-120 105-12 6-25 11-39 15 20 45 31 93 31 133 0 32-6 55-18 92-6 20-16 35-27 55l60 33c14-20 22-42 30-62l5 1c51 15 104 15 155 0l5-1c7 20 17 43 30 62l60-33a305 305 0 0 1-45-152c0-40 12-87 31-128-13-4-27-9-39-15-52-23-92-58-119-105"/>
    <path fill="#121a61" d="m381 264-1-2a95 95 0 0 0-174 26h10c11-36 45-62 85-62a89 89 0 0 1 75 42l-2 1-6 4-3 1-1-2a73 73 0 0 0-65-34c-32 1-60 23-70 50h12a64 64 0 0 1 60-40v40h9v-39a67 67 0 0 1 10 2 64 64 0 0 1 37 29l-3 2-3 2-2 2-2-3c-7-9-16-17-27-21v26h72c-3-8-6-17-11-24m-155 24c10-31 39-53 73-53 28 0 54 12 68 35l5-3a85 85 0 0 0-152 70c10 34 43 59 79 59 30 0 60-15 74-39l-5-4a79 79 0 0 1-146-41c0-8 1-16 4-24m27 0h37v-29a54 54 0 0 0-37 29m-9 20a50 50 0 0 1 5-20 57 57 0 0 1 45-32v54h-24v5h28v-64c-23 1-45 16-54 37a55 55 0 0 0 9 58 60 60 0 0 0 45 22v-5a57 57 0 0 1-49-32 50 50 0 0 1-5-21v-2m76-49c12 4 23 12 29 22l3-1a58 58 0 0 0-39-27v116a56 56 0 0 0 7-2c12-4 22-12 30-21l-3-2a68 68 0 0 1-30 21v-50h23v-5h-23v-52l3 1m-20 149a94 94 0 0 0 92-71h-72v24a68 68 0 0 0 26-21l3 1 3 3 2 1-2 3a67 67 0 0 1-35 23h-1l-6 1v-35h-54a55 55 0 0 0 45 23v11h-3l-15-2c-18-5-32-17-40-32h-14c10 27 38 48 70 50a77 77 0 0 0 68-38l2 1 6 4 2 1-1 3a89 89 0 0 1-160-21h-10c11 41 49 71 94 71m-1 8a103 103 0 1 1 0-206 103 103 0 0 1 0 206"/>
    <path fill="#c4c26a" d="m246 638-2-5c-5 8-11 5-13 5l-5 1c-1 3-6 0-9-2l-3-4c-1-2-5-3-5-5l-3-4c-2-1-4-4-4-8l-1-2a9 9 0 0 1 0-14c2-1 2-2 2-4v-1l2-4 2-4c0-4-4-7-10-7h-1l-9 3-8 3c-4 1-6 4-6 5-2 4-4 6-8 7h-1l-1 2c0 7-3 5-6 7l-1 2c0 2 0 5-3 6-1 0-2 0-2 3v1c2 2 3 4 3 7h1l1 1v1l-1 1-2 5-1 4 1 3h1c1 1 2 2 1 3v1l2 4c3 0 4 2 4 5 0 1 7 1 7 5l1 3 4 2 5 2 6 4h5l2 1 6 1c3 0 7 0 9-2l4-3 5-2 4-1 9-7c-7 1-19 2-21 0 0 0-7 6-22 1 0 0 13 2 18-1l-8-4s-13 0-27-10c1 1 19 8 22 7 0 0-8-8-9-11l-6-4c-5-2-11-10-11-11 0 1 11 10 13 9 0 0-9-10 0-27 0 0-4 18 2 27 0 0 5-11 5-14 0 2 0 11-3 16 0 0 8 11 12 14 0 0 2-10-1-20 1 0 6 12 3 21 0 0 9 6 11 5 0 0-1-18-5-22 1 0 8 7 7 23h13s-4-9-7-11c1 0 7 3 10 10l7-1c8-7 15-16 15-16m-24 37-11 8v2c2 2-2 8-2 8l-1 1-1 1v5l-1 1c-2 2-3 4-3 7a339 339 0 0 1-1 9l-1 2 1 2 1 3c2 1 2 3 1 4l-1 2-1 2v2l3 2 2 2-1 6c0 2 2 4 3 5l1 3a62 62 0 0 0 0 6v3s6 2 7 6l1 1 5 4 2 1h3l2 1 2 3c0 1 1 2 3 2 0 0 5-2 8 1l6 4 4-1 1-3 1-2 4 2c2 1 5 0 5-3v-2c0-2 2-3 3-4h2v-3s-3-3-1-12c0 0 2-3 0-7l-4-8-3-6v-3l2-2-2-2s-2-1-1-5l-1-2c-2-2-7-6-5-12v-4c-2-3-4-9-2-10 0 0-2-7-6-10 0 0 4-2 5-5l-4-3s5-3 3-10c0 0-3-1 2-6l-1-7s-12 16-16 25c0 0 4 1 8 18 0 0-7-15-9-15 0 0-5 14-4 15 0 0 8 10 12 21 0 0-10-17-13-18 0 0-2 9-1 18 0 0 8 7 15 20 0 0-14-17-15-16 0 0 2 15 5 20 0 0 3 0 13 14 0 0-10-11-13-11 0 0 6 14 10 19 0 0-6-4-12-20 0 0-2 7-1 17 0 0-4-9 0-20 0 0-4-14-4-19 0 0-6 11-6 18 0 0 0-15 6-22l1-19-14 13h-1c2-3 6-8 15-16l5-15s-6 2-15 11c0 0 5-9 17-15 0 0 6-14 13-22 0 0-25 14-25 20m63 12s-10 11-9 13c0 0-10 8-5 13 0 0 1 2-1 4s-1 6 1 10l1 6-1 10 1 1c1 0 3 2 3 4v11s5 0 4 8c0 0 0 2 3 4 0 0 0 4 5 5 2 0 4 2 5 4l1 3c1 2 5 4 7 2h5v2c3 2 4 3 7 2 2-1 3 0 4 2 0 0 2 2 5 0l1-1h2c2 0 5 2 5-2l2-2 2 1s4 1 7-3c0 0 4-6 9-5l4-4c8-7 5-8 6-12l-1-7h-3c-2 1-6 1-7-1h-5l-5-2-1-1-4-2-6-5h-2l-2-2-1-1-2-3h-1c-3-1-4-2-4-5s-2-4-4-5h-1c-4 0-4-4-4-5 1-5-3-7-3-7-2-1-2-5-2-5l-2-8c-2-1-4-4-4-6l1-6-7-2s-5 11-5 30c0 0 11 7 13 13 0 0-10-9-12-9 0 0 0 8 2 13 0 0 11 2 13 5 0 0-7-3-12-2 0 0 6 12 11 17 0 0 9-2 18 0l-14 2s6 7 9 8c0 0 14-1 21 1l-18 2 20 5s-12 0-18-3c0 0 6 8 10 10 0 0-10-4-14-12 0 0-10-5-12-8 0 0-1 5 5 13 0 0-7-7-9-17 0 0-8-9-10-16 0 0-3 3-4 13 0 0-1-7 2-17l-3-14s-4 5-6 12c0 0 0-9 6-16 0 0 1-24 5-33Zm153 35-5 7-1 3c1 1 0 2-1 3-2 2-5 4-6 7s-1 5-4 5c-1-1-2 1-3 2l-2 2-4 1h-1c-2 0-3 1-3 2l1 1-8 1c-2 0-5 1-6 3l-2 1-13-4h-3c-3 0-6-2-7-4a4 4 0 0 0-5-3c-4 0-6 2-10-5-1-2-2-3-4-3-4 0-7-3-7-6v-2l-1 1c-4 0-6-3-6-7-4-1-6-2-6-4v-8c-2-1-4-3-4-5l1-1v-4l-2-2s-1-12 2-16c0 0-2-5 0-10 1 6 5 22 10 29l2 3v3a52 52 0 0 0 1 8l1 5 1 1a36 36 0 0 1-1-8l1-5s0 5 10 12c0 0 0 5 2 8 0 0 0-7 1-6 8 8 12 7 19 10l1 2 2 2a40 40 0 0 0 11 8l-4-3c-7-6-7-9-7-9l3 1c7 1 17-3 17-3 9 4 17 2 17 2-9-1-16-3-13-4l17-11-17 10c-2-3 10-17 10-17-7 3-15 18-15 18-4 3-17 2-17 2 0-2 9-10 9-10-7 2-13 10-13 10l-10-4c-16-8-10-7 2-7l-3-1a69 69 0 0 0-12-1l-10-10c6-1 13 2 13 2-5-3-14-5-14-5-6-8-10-29-12-37l4-4 1 2 4 8c2 2 5 6 4 19 0 0 4 2 6 6 4 7 7 6 11 6 2 0 4 1 5 3s3 4 5 3l3 1c1 1 2 3 6 0l7 1 3-1 7-6h6c4 0 7-1 9-4l1-1 3-1h1s5-4 7-10c0 0 5-3 7 1l2 3 2 2 3 5-2 11 3 6"/>
    <path fill="#c4c26a" d="M346 649s5 10 11 12c0 0 0 3 3 5l4 3 5 5 2 1h1l2 1 3 4 4 1h2l2 3h4c2 0 6-1 7 1l2 1 5-1h7c1 0 3 0 4-2s4-3 7-2l2-3c1-2 2-3 4-3h2c2 0 4-1 4-4 0-1 0-3 2-3l2-4 2-6 1-2 2-2c1-1 2-1 0-4-1-1-1-4 1-5h1c2-1 2-4 1-6-2-2-3-5-3-8v-9c0-2-1-4-3-4-2-1-4-3-4-6 0-2-2-3-4-3h-3l-5-8-3 2-7-7h-7c-3 2-7 2-10 0-3-1-6 0-9 2l-14 14c-1 1 0 4 2 3h5l1 2 1-1 2-1 8 6s5-4 6 0l-1 6a12 12 0 0 0 2 9c2 4-4 10-6 10h-7l-3 2c-3 2-7 2-10 0l-6-3s-3-4-8-5l-7-7-2 7s15 19 30 24c0 0 4-8 7-10l-5 11s13 5 19 0c0 0-2-8 0-18 0 0 1 15 3 17 0 0 8-2 15-15 0 0-11-10-14-21 0 0 7 13 15 19 0 0 5-6 2-18 0 0-10-4-15-11 0 0 10 8 14 7 0 0-2-9-9-16 0 0 8 7 12 16 0 0 3-2 4-7 0 0 0 7-3 10 0 0 2 11-2 19 0 0 5 0 9-4 0 0-3 4-10 7 0 0-6 12-18 17 0 0 5 5 9 6 0 0-6-1-10-5 0 0-12 4-21-1 0 0 1 4 5 8 0 0-5-2-9-9 0 0-9-2-29-23z"/>
  </g>
</svg>
