<svg xmlns="http://www.w3.org/2000/svg" xml:space="preserve" viewBox="0 0 612 612">
  <g fill-rule="evenodd" clip-rule="evenodd">
    <path fill="#352F29" d="M8 297v20a369 369 0 0 1 3 33l6 30a276 276 0 0 0 45 98l8 11 8 10 17 19 19 17 10 8 10 7a289 289 0 0 0 71 37l28 9 30 6 16 2 17 1h20a368 368 0 0 1 33-3l30-6c18-5 38-12 53-19 16-8 32-16 45-26l11-8 10-8 19-17 17-19 8-10 7-10a289 289 0 0 0 37-71l5-13 4-15 3-14 3-16 2-16 1-17v-20l-1-17-2-16-3-16-3-15-4-14-5-13c-3-8-6-18-10-25-8-16-16-33-27-46l-7-10-8-10a203 203 0 0 0-36-36l-10-8-11-8c-13-10-29-18-45-26-15-8-35-14-53-19l-30-6-16-2-17-1h-20l-17 1-16 2c-10 2-22 3-30 6-10 3-19 5-28 9a289 289 0 0 0-71 37l-10 7-10 8a203 203 0 0 0-36 36l-8 10-8 10c-10 14-18 30-26 46l-11 25-4 14-4 14c-3 9-4 20-6 30l-2 16-1 17zM304 56c0-3-8-17-8-20h7l3 6 2 8h1l4-14h8l-9 19-1 13h-7V56zm28 1c0-9 6-18 15-18h4l5 2-1 6-6-2c-6 0-9 6-9 11v2c0 4 4 8 9 8h3v5l-1 1h-4c-9 0-15-6-15-15zm23 496 20-4v7l-3 7-4 14 12-3 1 6-21 5-1-4 4-12 4-12-12 2v-6zm64-485 3-6 18 9c0 5-7 8-10 10l-12 8 11 6-3 5-19-9c1-5 7-8 10-10l12-8-10-5zM251 585l5-32 18 3-1 6-10-2c0 3-3 6 0 7l8 1-1 6h-1l-9-2-1 8 11 2-1 6-18-3zM385 75c0-8 7-18 8-25l7 3c-1 4-8 18-8 21v3c0 1 2 3 4 3h1c3 0 5-8 7-11l4-13 7 3c-3 6-7 27-16 27h-3c-4 0-11-5-11-9v-2zm-209 3c0-4 3-9 5-11 2-1 7-5 10-5h2l2 6c-5 0-11 4-11 9s4 12 8 12h2l5-2-3-6-4 2-2-5 10-5c0 3 7 14 7 16l-7 5-9 2h-1c-3 0-8-4-9-6-2-2-5-7-5-10v-2zm205 468 8-3 18 29-7 2-4-7-7 3v7l-7 3-1-31v-3zm-108 41 3-31 7 1 9 22 1-19v-3h3l3 1v1l-2 31h-7l-4-11-4-11v-2h-1v7l-1 14v2l-3-1h-3l-1-1zm90-538 2-6h1c6 0 17 4 17 9v2c0 5-3 9-7 9 4 5 2 6 2 14v2l-5-1c-3-1-2-2-2-6 0-6 1-7-4-9l-3 12-7-1 6-24v-1zM215 575l10-30 8 2h1v10l-1 12 11-19 8 2-6 32-2-1-3-1h-2l5-23-11 21-6-2v-4l1-19-7 22h-1l-5-2zm50-523c0-8 6-15 13-15h4c4 3 4 2 7 6l3 10v4c0 7-5 13-12 13h-3c-6 0-12-9-12-16v-2zm64 516c0-7 6-14 12-14h1c10 0 14 10 14 19v1c0 4-2 8-4 10-1 2-6 4-9 4l-4-1c-3-2-4-1-7-5l-3-10v-4zM204 64c0-4 1-6 3-8s6-4 9-4h1c8 0 15 11 15 19s-6 14-13 14c-8 0-15-10-15-18v-3zm99 494 10-1h1c8 0 14 6 14 14v4c0 5-3 10-6 12s-7 3-13 3h-6v-32zM233 47c3-2 9-4 14-4h1c9 0 13 9 13 19v1c0 9-11 14-21 14l-7-30zM79 297l2-26 2-11 3-11c1-7 5-15 7-22l8-19A228 228 0 0 1 306 80h2a230 230 0 0 1 159 67 227 227 0 0 1-159 388h-1A228 228 0 0 1 93 386c-2-6-6-14-7-21l-3-11-2-12-2-25v-20z"/>
    <path fill="#DAD8D9" d="M25 232a284 284 0 0 0-9 72v26l2 18 7 33c0 4 6 20 7 24l9 22a368 368 0 0 0 35 57l7 9 7 8c8 9 22 23 32 30l17 14a287 287 0 0 0 163 52h8a288 288 0 0 0 162-52c3-2 7-4 9-7l9-6a229 229 0 0 0 39-39l7-8 13-18 11-19 11-21a213 213 0 0 0 16-46c2-3 6-29 7-35 2-12 2-27 2-41A290 290 0 0 0 427 43c-8-4-16-8-25-10l-28-9c-20-4-41-8-64-8h-3l-29 2-28 4-12 2-12 4c-6 1-19 5-24 8l-11 4-11 5-20 11a277 277 0 0 0-96 90c-9 13-15 26-22 40l-9 22-8 24zM304 56c0-3-8-17-8-20h7l3 6 2 8h1l4-14h8l-9 19-1 13h-7V56zm28 1c0-9 6-18 15-18h4l5 2-1 6-6-2c-6 0-9 6-9 11v2c0 4 4 8 9 8h3v5l-1 1h-4c-9 0-15-6-15-15zm23 496 20-4v7l-3 7-4 14 12-3 1 6-21 5-1-4 4-12 4-12-12 2v-6zm64-485 3-6 18 9c0 5-7 8-10 10l-12 8 11 6-3 5-19-9c1-5 7-8 10-10l12-8-10-5zM251 585l5-32 18 3-1 6-10-2c0 3-3 6 0 7l8 1-1 6h-1l-9-2-1 8 11 2-1 6-18-3zM385 75c0-8 7-18 8-25l7 3c-1 4-8 18-8 21v3c0 1 2 3 4 3h1c3 0 5-8 7-11l4-13 7 3c-3 6-7 27-16 27h-3c-4 0-11-5-11-9v-2zm-209 3c0-4 3-9 5-11 2-1 7-5 10-5h2l2 6c-5 0-11 4-11 9s4 12 8 12h2l5-2-3-6-4 2-2-5 10-5c0 3 7 14 7 16l-7 5-9 2h-1c-3 0-8-4-9-6-2-2-5-7-5-10v-2zm205 468 8-3 18 29-7 2-4-7-7 3v7l-7 3-1-31v-3zm-108 41 3-31 7 1 9 22 1-19v-3h3l3 1v1l-2 31h-7l-4-11-4-11v-2h-1v7l-1 14v2l-3-1h-3l-1-1zm90-538 2-6h1c6 0 17 4 17 9v2c0 5-3 9-7 9 4 5 2 6 2 14v2l-5-1c-3-1-2-2-2-6 0-6 1-7-4-9l-3 12-7-1 6-24v-1zM215 575l10-30 8 2h1v10l-1 12 11-19 8 2-6 32-2-1-3-1h-2l5-23-11 21-6-2v-4l1-19-7 22h-1l-5-2zm50-523c0-8 6-15 13-15h4c4 3 4 2 7 6l3 10v4c0 7-5 13-12 13h-3c-6 0-12-9-12-16v-2zm64 516c0-7 6-14 12-14h1c10 0 14 10 14 19v1c0 4-2 8-4 10-1 2-6 4-9 4l-4-1c-3-2-4-1-7-5l-3-10v-4zM204 64c0-4 1-6 3-8s6-4 9-4h1c8 0 15 11 15 19s-6 14-13 14c-8 0-15-10-15-18v-3zm99 494 10-1h1c8 0 14 6 14 14v4c0 5-3 10-6 12s-7 3-13 3h-6v-32zM233 47c3-2 9-4 14-4h1c9 0 13 9 13 19v1c0 9-11 14-21 14l-7-30zM79 297l2-26 2-11 3-11c1-7 5-15 7-22l8-19A228 228 0 0 1 306 80h2a230 230 0 0 1 159 67 227 227 0 0 1-159 388h-1A228 228 0 0 1 93 386c-2-6-6-14-7-21l-3-11-2-12-2-25v-20z"/>
    <path fill="#352F29" d="M79 297v20l2 25 2 12 3 11c1 7 5 15 7 21l8 20a228 228 0 0 0 206 128h1a230 230 0 0 0 159-67A227 227 0 0 0 308 79h-2A228 228 0 0 0 93 227c-2 7-6 15-7 22l-3 11-2 11-2 26zm7 10a221 221 0 0 1 440 0 221 221 0 0 1-440 0zM233 47l7 30c10 0 21-5 21-14v-1c0-10-4-19-13-19h-1c-5 0-11 2-14 4zm8 3 4-1h1c5 0 8 7 8 11v4l-3 4-4 2h-1l-5-20zm62 508v32h6c6 0 10-1 13-3s6-7 6-12v-4c0-8-6-14-14-14h-1l-10 1zm7 5h3c5 0 7 5 7 10v2c0 4-3 9-7 9h-3v-21zM204 64v3c0 8 7 18 15 18 7 0 13-6 13-14s-7-19-15-19h-1c-3 0-7 2-9 4s-3 4-3 8zm7-1c0-2 2-5 4-5h1c5 0 8 10 8 16 0 2-2 4-4 4-5 0-9-9-9-15zm118 505v4l3 10c3 4 4 3 7 5l4 1c3 0 8-2 9-4 2-2 4-6 4-10v-1c0-9-4-19-14-19h-1c-6 0-12 7-12 14zm7 0c0-3 2-7 5-7h1c4 0 6 6 6 10v5c0 2-2 6-4 6h-1c-4 0-7-8-7-12v-2zM265 52v2c0 7 6 16 12 16h3c7 0 12-6 12-13v-4l-3-10c-3-4-3-3-7-6h-4c-7 0-13 7-13 15zm8-1c0-4 2-8 5-8h1c3 0 6 7 6 11v3c0 4-2 7-5 7h-1c-4 0-6-8-6-13zm-58 524 5 2h1l7-22-1 19v4l6 2 11-21-5 23h2l3 1 2 1 6-32-8-2-11 19 1-12v-10h-1l-8-2-10 30zM363 49v1l-6 24 7 1 3-12c5 2 4 3 4 9 0 4-1 5 2 6l5 1v-2c0-8 2-9-2-14 4 0 7-4 7-9v-2c0-5-11-9-17-9h-1l-2 6zm5 9 2-8c3 0 6 1 6 3v2c0 2-2 4-4 4l-4-1zm-95 529 1 1h3l3 1v-2l1-14v-7h1v2l4 11 4 11h7l2-31v-1l-3-1h-3v3l-1 19-9-22-7-1-3 31zm108-41v3l1 31 7-3v-7l7-3 4 7 7-2-18-29-8 3zm7 18-1-13 6 11-5 2z"/>
    <path fill="#352F29" d="M176 78v2c0 3 3 8 5 10 1 2 6 6 9 6h1l9-2 7-5c0-2-7-13-7-16l-10 5 2 5 4-2 3 6-5 2h-2c-4 0-8-7-8-12s6-9 11-9l-2-6h-2c-3 0-8 4-10 5-2 2-5 7-5 11zm209-3v2c0 4 7 9 11 9h3c9 0 13-21 16-27l-7-3-4 13c-2 3-4 11-7 11h-1c-2 0-4-2-4-3v-3c0-3 7-17 8-21l-7-3c-1 7-8 17-8 25zM251 585l18 3 1-6-11-2 1-8 9 2h1l1-6-8-1c-3-1-1-4 0-7l10 2 1-6-18-3-5 32zM419 68l10 5-12 8c-3 2-9 5-10 10l19 9 3-5-11-6 12-8c3-2 10-5 10-10l-18-9-3 6zm-64 485v6l12-2-4 12-4 12 1 4 21-5-1-6-12 3 4-14 3-7v-7l-20 4zM332 57c0 9 6 15 15 15h4l1-1v-5h-3c-5 0-9-4-9-8v-2c0-5 3-11 9-11l6 2 1-6-5-2h-4c-9 0-15 9-15 18zm-28-1v12h7l1-13 9-19h-8l-4 14h-1l-2-8-3-6h-7c0 3 8 17 8 20z"/>
    <path fill="#DAD8D9" d="M336 568v2c0 4 3 12 7 12h1c2 0 4-4 4-6v-5c0-4-2-10-6-10h-1c-3 0-5 4-5 7zM273 51c0 5 2 13 6 13h1c3 0 5-3 5-7v-3c0-4-3-11-6-11h-1c-3 0-5 4-5 8zm-62 12c0 6 4 15 9 15 2 0 4-2 4-4 0-6-3-16-8-16h-1c-2 0-4 3-4 5zm99 500v21h3c4 0 7-5 7-9v-2c0-5-2-10-7-10h-3zM241 50l5 20h1l4-2 3-4v-4c0-4-3-11-8-11h-1l-4 1zm127 8 4 1c2 0 4-2 4-4v-2c0-2-3-3-6-3l-2 8zm20 506 5-2-6-11z"/>
    <path fill="#0081C3" d="m125 170 1 35 1 34v8l1 9 1 16 1 16 2 16 3 15 3 15 1 7 2 7 4 14 4 13 6 13 5 12 6 12 7 11c2 3 4 8 7 10l7 11 8 10 8 9 8 9 9 9 9 9 10 8 9 8 20 16 20 15 21 15 9-6 8-6 17-12 16-13 8-6 8-7 8-7 7-7 15-14 7-7 6-8 13-16 12-17 5-9 6-9 4-10 5-10 4-10 2-5 2-6 3-11 3-11 3-12 1-6 1-6 2-12 2-13 2-13v-7l1-6 1-1v-20l1-13 1-26 1-54v-48H125v62z"/>
    <path fill="#FDFDFE" d="m423 221-240 68-11 4c-4 1-8 2-8 7v26l1 12v5c0 1 1 3 3 3l8-2 8-2 48-14 100-28 37-11 9-2 4-1 4-1 9-3 8-2 34-10 17-5c9-2 8-4 8-14v-32c0-3 0-7-4-7h-1l-17 4-17 5zM146 120v17l2 2h325c2 0 2-1 2-2v-17l-1-2H148l-2 2zm158 198v212l5 3 4-2V316l-9 2zm33-8v204l8-7V307l-4 1-4 2zm32-10v188l8-8V298zm-97 27v179l9 7V325l-9 2zm129-36v165l9-10V289l-9 2zm-161 45v143l9 8V334l-5 1-4 1zm-97-72 2 15 1 7 6-2V145h-9v119zm33 14 8-2V145h-8zm32-9 8-2V145h-8zm225 13v131l9-15V280l-9 2zm-193-22 9-2V145h-9zm-32 85v101l8 10V342l-8 3zm64-94 9-2V145h-9v106z"/>
    <path fill="#0081C3" d="m232 283 2 9 2 8 3 8 2 8 16-4c5-3 8-6 8-13 0-9-6-20-14-20h-3l-8 2-8 2z"/>
    <path fill="#FDFDFE" d="m304 243 5-2 4-1v-95h-9v98zm33-10 8-2v-86h-8zm32-8 8-3v-77h-8zm32-9 4-2 5-1v-68h-9v71z"/>
    <path fill="#0081C3" d="M280 280v3c0 9 8 18 16 18h2l10-3c1-1 7-5 7-7l-2-6-1-7-8 2-7 2 2 5 7-1 1 4c-1 2-5 5-9 5-7 0-11-8-11-15 0-5 5-8 10-8h1c2 0 4 2 5 3l6-3c-2-4-5-7-11-7-5 0-10 3-12 5-3 2-6 6-6 10zm101-38-3 37 7-2v-9l13-3 5 6 7-1c0-1-9-14-11-15l-11-15-7 2z"/>
    <path fill="#FDFDFE" d="m433 207 5-2 4-1v-59h-9v62z"/>
    <path fill="#0081C3" d="M189 306v1c0 5 1 10 4 13 2 3 6 6 10 6h3c7 0 14-5 14-12v-3h-7c0 5-2 9-7 9h-1c-6 0-10-8-10-14v-2c0-3 4-7 8-7h1c4 0 5 4 6 4l6-3c-2-3-6-7-11-7h-1c-8 0-15 7-15 15zm139-38v1c0 5 3 10 5 13s6 6 12 6c9 0 15-6 15-15h-7v1c0 4-3 8-8 8-4 0-6-3-7-5l-3-10 1-3 2-4 5-2h1c2 0 5 3 6 4l6-3c-2-3-5-7-11-7-9 0-17 7-17 16z"/>
    <path fill="#FDFDFE" d="M176 354v43l8 16v-62l-8 3zm289-156 9-3v-50h-9z"/>
    <path fill="#0081C3" d="m415 233 1 4c1 2 0 2 3 1l7-2 3 10v1l5 16 7-2-4-14-4-13 10-3-2-5-26 7z"/>
    <path fill="#FDFDFE" d="m240 287 6 22 8-2c3-2 4-3 4-7l-2-9c-2-3-3-6-7-6l-9 2zm225-14v57l5-29 2-15 1-7 1-8-9 2zm-78-23-1 12 9-2-8-11z"/>
    <path fill="#0081C3" d="m272 301 2 6 6-1-1-7-7 2zm140-39 1 5c1 2 2 1 4 1 2-1 3-1 3-3l-2-5-6 2zm-91 26 1 6 5-1c3-1 1-2 1-4-1-2 0-3-3-3l-4 2zm45-13 2 6 6-2-1-6-7 2zm-139 39 1 6 6-2-1-6z"/>
  </g>
</svg>
