<svg xmlns="http://www.w3.org/2000/svg" xml:space="preserve" viewBox="0 0 612 616">
  <path fill="#2A1972" fill-rule="evenodd" d="M3 288v37c2 4 3 25 4 31l6 29a311 311 0 0 0 243 220l32 4h38l61-10a306 306 0 0 0 136-80c43-43 86-116 86-201v-29a288 288 0 0 0-90-199C475 46 405 3 317 3h-19C209 3 139 45 95 89a306 306 0 0 0-81 136l-7 30-4 33z" clip-rule="evenodd"/>
  <path fill="#FBFBFB" fill-rule="evenodd" d="M16 296v26a289 289 0 0 0 281 275h18c152 0 283-133 283-286A297 297 0 0 0 436 43c-27-13-75-28-115-28h-19A290 290 0 0 0 16 296z" clip-rule="evenodd"/>
  <path fill="#2A1972" fill-rule="evenodd" d="M36 309v2a270 270 0 0 0 457 191c41-41 83-103 83-184v-19c0-82-37-144-78-185a274 274 0 0 0-184-80h-7c-86 1-149 37-192 81-45 45-79 105-79 194z" clip-rule="evenodd"/>
  <path fill="#FBFBFB" fill-rule="evenodd" d="M114 309c0 105 87 190 192 190h11c54 0 100-31 128-59s55-75 55-131v-6c0-106-88-190-195-190h-3a192 192 0 0 0-188 196z" clip-rule="evenodd"/>
  <path fill="#2A1972" fill-rule="evenodd" d="M136 306c0 93 75 170 168 170h12c85 0 161-81 161-168a171 171 0 1 0-341-2z" clip-rule="evenodd"/>
  <path fill="#FBFBFB" fill-rule="evenodd" d="M223 225v1c0 21 28 47 46 47v101h15v-95l12 3v92h15v-64h18c17 0 31 12 31 29v35h16v-35c0-14-7-22-12-31l10-4c3 0 12 11 14 14 3 5 5 14 5 22v7c0 33-48 60-85 60h-8c-18 0-38-9-50-16-8-6-29-25-31-35l-1-1-16 17c14 26 56 58 96 58h16c44 0 103-40 103-82v-1c0-11-5-30-8-37-7-16-14-16-20-25 2-4 4-13 4-18 0-28-20-46-49-46h-48l-1 37-11-2v-35h-16v28c-8-2-20-11-20-20v-3c0-16 39-22 59-22 14 0 30 4 40 9l16-19-26-8c-6-2-22-4-30-4-31 0-84 16-84 43z" clip-rule="evenodd"/>
  <path fill="#FBFBFB" fill-rule="evenodd" d="M149 297v14a158 158 0 0 0 290 81l-18-10c-5 3-13 16-19 21-6 7-15 13-22 18-13 8-40 20-61 20h-26a136 136 0 0 1-122-122v-25c0-63 65-124 131-124h11a122 122 0 0 1 74 26l18 15 15-14c-2-9-34-29-44-34-16-8-39-15-62-15h-18c-74 0-147 74-147 149z" clip-rule="evenodd"/>
  <path fill="#2A1972" fill-rule="evenodd" d="M311 263c6 0 27 4 33 6l30 8c2 0 3-3 3-6v-6c0-16-12-28-27-28h-39v26zm0 33h41c-2-5-32-10-41-10v10z" clip-rule="evenodd"/>
  <path fill="#FFF" stroke="#FFF" stroke-miterlimit="22.9" stroke-width=".6" d="m99 301-41-1v-7l42 1-1 7zm0-13-41-7 1-6 30-10-28-4 1-6 41 6-1 7-29 9 27 4-1 7zm-33-44 3-12 2-7 5-3 7-2 10 1 9 4 5 4 2 5v7l-3 13-40-10zm8-5 27 7 1-5v-5l-1-3-3-3-7-2-7-1-5 1c-1 1-2 1-2 3l-2 5-1 3zm41-18 12-23-6-3-9 17-10-5 8-15-6-4-8 15-8-4 9-16-6-3-12 22 36 19zm16-27-33-25 7-9 5-6 6-1c3 0 5 1 8 3l5 6 1 6-5 7-2 4 12 9-4 6zm-23-26 9 7 2-3 3-5v-3l-2-2-4-2-2 1-4 4-2 3zm42 1 18-19-5-5-13 14-8-8 12-12-5-5-12 12-7-6 13-13-5-5-17 18 29 29zm23-22-25-33 5-4 28 13-17-22 5-3 25 32-5 4-28-13 17 22-5 4zm7-56 20 36 12-6 5-5 2-5v-7l-4-8-5-9-6-4-6-1-7 3-11 6zm50 21-15-38 6-3 16 38-7 3zm13-5 25-7-2-6-18 4-3-10 17-5-2-6-17 4-2-9 18-5-2-6-24 6 10 40zm31-7-4-41 7-1 16 27-2-28h6l4 41h-7l-16-25 2 27h-6zm41-2 3-34-10-1 1-7 27 2-1 7-10-1-3 34h-7zm22 2 8-41 24 5-1 7-18-3-2 9 17 3-1 7-17-4-2 11 18 4-1 7-25-5zm44 9 23-35 12 8 6 6 1 5-3 6c-1 3-4 5-6 6l-7-1 1 5-1 8-1 9-7-5 1-10 1-7-1-3-3-2-1-1-10 14-5-3zm19-16 4 3 5 3 3-1 2-2 1-3-1-3-4-3-4-3-6 9zm10 33 6 3 22-34-5-4-23 35zm18 12 14-41 6 4-11 30 25-20 6 4-34 27-6-4zm37 33 21-38-5-5-39 19 5 5 8-4 10 9-5 9 5 5zm36-21 7 10 3 6v6l-3 6c-2 2-4 5-8 7l-8 5-7 1-5-2-5-5-8-10 34-24zm0 79-3-7 6-7-6-12-9 2-4-6 43-8 3 7-30 31zm9-19 11-11-16 3 5 8zm-7 28 2 7 43-1-2-7-31 1 26-17-2-7-36 24zm7 21 41-6 1 7-41 6-1-7zm4 44v-7l9-4-1-14-10-2-1-7 43 10v7l-40 17zm16-14 14-6-15-3 1 9z"/>
  <path fill="#FFF" stroke="#FFF" stroke-miterlimit="22.9" stroke-width=".2" d="m181 527 18-37 10 5-8 28 18-22 10 4-19 37-6-3 15-29-21 26-6-3 9-32-15 29-5-3zm40 19 25 7 1-7-18-5 3-11 17 5 2-7-17-5 3-8 17 5 2-7-24-7-11 40zm35 10 5-41h7l10 29 4-27 6 1-5 41-7-1-10-28-3 26h-7zm39-38h13l7 1 4 4 4 7 1 9-1 10-4 6-4 4-7 1h-13v-42zm7 7v28h5l5-1 2-2 2-4 1-7-1-7-2-4-3-2-6-1h-3zm28 13 1-12 4-8c2-2 5-3 9-4 4 0 8 1 12 4s6 8 7 15 0 13-3 17c-2 4-6 6-11 7-4 0-8-1-12-4-3-3-6-8-7-15zm7-1c1 5 2 8 4 10s5 3 7 3c3-1 5-2 7-5s1-6 1-11c-1-5-2-8-4-10s-5-3-7-3c-3 1-5 2-7 5l-1 11zm36 15 26-8-2-7-19 6 9-32-2-6-23 7 2 7 15-5-9 31 3 7zm62-25-7 3-7-7-12 6 2 10-7 3-6-43 7-3 30 31zm-19-9-10-12 2 16 8-4z"/>
  <path fill="#2A1972" d="m498 159 2 3 3 5 1 3-3 4-5 5-6 4-4 1-3-1-4-3-3-5 22-16zm-28-9 7-14-14 7 7 7zM189 94l14 24 4-3 4-3 1-3v-4l-3-6-4-6-4-3h-4l-5 2-3 2z"/>
</svg>
