<?xml version="1.0" encoding="UTF-8" standalone="no"?>
<svg
   xmlns:dc="http://purl.org/dc/elements/1.1/"
   xmlns:cc="http://creativecommons.org/ns#"
   xmlns:rdf="http://www.w3.org/1999/02/22-rdf-syntax-ns#"
   xmlns:svg="http://www.w3.org/2000/svg"
   xmlns="http://www.w3.org/2000/svg"
   xmlns:sodipodi="http://sodipodi.sourceforge.net/DTD/sodipodi-0.dtd"
   xmlns:inkscape="http://www.inkscape.org/namespaces/inkscape"
   width="530.54968"
   version="1.1"
   height="723.64563"
   viewBox="0 0 424.43975 578.9165"
   id="svg2855"
   inkscape:version="0.47 r22583"
   sodipodi:docname="Tucuman.svg">
  <metadata
     id="metadata2890">
    <rdf:RDF>
      <cc:Work
         rdf:about="">
        <dc:format>image/svg+xml</dc:format>
        <dc:type
           rdf:resource="http://purl.org/dc/dcmitype/StillImage" />
        <dc:title></dc:title>
      </cc:Work>
    </rdf:RDF>
  </metadata>
  <sodipodi:namedview
     pagecolor="#ffffff"
     bordercolor="#666666"
     borderopacity="1"
     objecttolerance="10"
     gridtolerance="10"
     guidetolerance="10"
     inkscape:pageopacity="0"
     inkscape:pageshadow="2"
     inkscape:window-width="1152"
     inkscape:window-height="804"
     id="namedview2888"
     showgrid="false"
     inkscape:zoom="1.1927723"
     inkscape:cx="265.04821"
     inkscape:cy="400.53358"
     inkscape:window-x="-4"
     inkscape:window-y="-4"
     inkscape:window-maximized="1"
     inkscape:current-layer="svg2855" />
  <defs
     id="defs2857">
    <inkscape:perspective
       sodipodi:type="inkscape:persp3d"
       inkscape:vp_x="0 : 223.75 : 1"
       inkscape:vp_y="0 : 1000 : 0"
       inkscape:vp_z="382.5 : 223.75 : 1"
       inkscape:persp3d-origin="191.25 : 149.16667 : 1"
       id="perspective2892" />
    <clipPath
       id="Clip0">
      <path
         d="m 0,0 305.054,0 0,356.242 L 0,356.242 0,0 z"
         transform="translate(0.654297,0.995117)"
         id="path2860" />
    </clipPath>
  </defs>
  <g
     id="Hintergrund"
     transform="matrix(1.3913594,0,0,1.6250653,-0.91036228,-1.6171301)">
    <g
       id="Gruppe1"
       clip-path="url(#Clip0)">
      <path
         style="fill:#ddb255;fill-rule:nonzero;stroke:none"
         d="M 304.702,0 0.353513,0 0,186.577 c 0.005859,0.799 1.17871,78.326 52.459,119.755 0.4258,0.355 45.6367,33.349 98.852,49.91 l 2.431,0 c 53.222,-16.561 98.425,-49.555 98.878,-49.93 51.251,-41.409 52.428,-118.936 52.434,-119.712 0,-0.023 -0.352,-186.6 -0.352,-186.6 z"
         transform="translate(0.654297,0.995117)"
         id="path2864" />
      <path
         style="fill:#63c5e5;fill-rule:nonzero;stroke:none"
         d="m 36.8466,162.731 0.3711,0.297 0.003,0.008 c 3.9892,3.222 45.2959,35.949 93.5353,50.958 l 0.19,0 c 50.513,-15.712 93.452,-50.879 93.909,-51.263 47.954,-38.417 49.108,-110.829 49.115,-111.556 0,0.009 -0.043,-22.34 -0.099,-51.175 L 0,110.111 c 7.2119,18.585 18.6591,38.05 36.8466,52.62 z"
         transform="translate(21.6104,132.605)"
         id="path2866" />
      <path
         style="fill:#ffffff;fill-rule:nonzero;stroke:none"
         d="M 285.826,0 0.78321,114.583 0.67281,171.934 c 0.0049,0.447 -0.67281,25.455 9,53.681 L 285.841,114.539 C 285.761,72.4355 285.864,19.123 285.826,0 z"
         transform="translate(9.61719,12.5508)"
         id="path2868" />
      <path
         style="fill:#63c5e5;fill-rule:nonzero;stroke:none"
         d="M 271.908,0 0.211,0 0,109.331 271.908,0 z"
         transform="translate(10.4023,12.3213)"
         id="path2870" />
      <path
         style="fill:#ddb255;fill-rule:nonzero;stroke:none"
         d="M 35.1406,2.293 40.835,0 54.4297,17.895 47.8379,23.068 C 43.4199,19.281 39.71,16.826 36.707,15.703 32.5469,14.176 28.6865,14.129 25.1279,15.561 c -2.5957,1.045 -4.7324,2.747 -6.4111,5.101 -1.6787,2.357 -2.6152,5.206 -2.8076,8.549 -0.1934,3.343 0.4697,6.9 1.9892,10.674 2.3174,5.753 5.8301,10.091 10.5362,13.015 4.708,2.925 9.5234,3.395 14.4472,1.412 3.1299,-1.26 5.7793,-3.37 7.9473,-6.327 2.7178,-3.674 4.6338,-7.914 5.7471,-12.716 l 8.0801,2.11 c -1.8174,7.14 -3.962,12.464 -6.4307,15.977 C 54.4131,58.78 49.3359,62.768 43,65.32 37.7315,67.441 32.457,68.097 27.1738,67.286 21.8897,66.475 17.0615,64.307 12.6904,60.781 8.3184,57.255 5.0488,52.804 2.8828,47.425 0.7275,42.073 0,36.699 0.7012,31.301 1.4014,25.904 3.3887,21.114 6.6611,16.936 9.9336,12.757 14.1904,9.611 19.4326,7.5 24.7529,5.357 29.8711,4.602 34.7881,5.234 l 0.3525,-2.941 z"
         transform="translate(30.9121,129.21)"
         id="path2872" />
      <path
         style="fill:#ddb255;fill-rule:nonzero;stroke:none"
         d="M 5.328,0.83 C 7.387,0 9.44,0.02 11.486,0.89 c 2.046,0.873 3.484,2.339 4.313,4.399 0.83,2.06 0.81,4.112 -0.061,6.159 -0.871,2.045 -2.337,3.482 -4.398,4.313 C 9.253,16.601 7.187,16.587 5.142,15.716 3.096,14.845 1.659,13.38 0.829,11.319 0,9.259 0.02,7.205 0.891,5.159 1.761,3.113 3.241,1.671 5.328,0.83 z"
         transform="translate(102.227,162.425)"
         id="path2874" />
      <path
         style="fill:#ddb255;fill-rule:nonzero;stroke:none"
         d="M 3.888,5.065 16.464,0 50.678,36.458 c 1.837,1.936 3.216,3.028 4.142,3.277 0.923,0.25 2.331,-0.021 4.22,-0.813 l 3.12,7.747 -26.489,10.668 -3.121,-7.746 1.59,-0.688 c 1.472,-0.593 2.423,-1.202 2.856,-1.826 0.434,-0.626 0.536,-1.22 0.311,-1.78 -0.194,-0.483 -0.848,-1.37 -1.959,-2.664 l -3.723,-4.425 -17.023,6.856 0.18,6.505 c 0.056,1.376 0.16,2.252 0.311,2.627 0.172,0.428 0.483,0.754 0.93,0.979 0.449,0.223 1.052,0.276 1.812,0.155 0.499,-0.076 1.777,-0.528 3.839,-1.359 l 3.12,7.747 L 3.119,70.447 0,62.701 c 1.39,-0.561 2.357,-1.091 2.904,-1.59 0.545,-0.5 0.926,-1.074 1.148,-1.722 0.22,-0.648 0.32,-1.731 0.302,-3.248 L 3.888,5.065 z m 10.459,30.819 11.12,-4.479 -11.611,-13.193 0.491,17.672 z"
         transform="translate(120.334,103.011)"
         id="path2876" />
      <path
         style="fill:#ddb255;fill-rule:nonzero;stroke:none"
         d="m 5.327,0.83 c 2.06,-0.83 4.114,-0.809 6.16,0.061 2.046,0.872 3.483,2.337 4.314,4.397 0.83,2.061 0.808,4.114 -0.062,6.16 -0.873,2.046 -2.338,3.482 -4.397,4.312 C 9.254,16.6 7.187,16.586 5.141,15.715 3.095,14.844 1.659,13.378 0.83,11.319 0,9.258 0.019,7.205 0.891,5.159 1.76,3.114 3.24,1.67 5.327,0.83 z"
         transform="translate(181.636,130.443)"
         id="path2878" />
      <path
         style="fill:#ddb255;fill-rule:nonzero;stroke:none"
         d="M 0,17.4903 5.298,15.3565 6.619,17.0166 38.168,4.3106 38.09,2.1494 43.428,0 58.277,16.8301 51.861,22.4463 c -2.974,-2.5967 -5.02,-4.2451 -6.141,-4.9433 -2.206,-1.3809 -4.458,-2.2637 -6.757,-2.6436 -1.736,-0.2959 -3.286,-0.1689 -4.651,0.3799 -0.643,0.2588 -1.022,0.5908 -1.138,0.9961 -0.118,0.4043 0.046,1.1552 0.487,2.2519 l 12.965,32.1892 c 0.765,1.901 1.311,3.064 1.64,3.491 0.328,0.428 0.712,0.717 1.146,0.868 0.436,0.15 0.957,0.159 1.561,0.025 0.601,-0.134 2.128,-0.694 4.578,-1.681 l 3.119,7.747 -27.332,11.007 -3.12,-7.746 1.655,-0.666 c 1.831,-0.737 2.955,-1.322 3.375,-1.756 0.419,-0.433 0.649,-0.992 0.688,-1.675 0.036,-0.684 -0.312,-1.936 -1.044,-3.756 L 19.636,23.6231 c -0.377,-0.9366 -0.721,-1.4825 -1.032,-1.6367 -0.311,-0.1543 -0.815,-0.0918 -1.51,0.1884 -1.392,0.5606 -2.734,1.7071 -4.026,3.4405 -1.292,1.7324 -2.224,3.8193 -2.797,6.2578 -0.233,0.9648 -0.525,3.5224 -0.874,7.6754 L 1.002,39.8975 0,17.4903 z"
         transform="translate(186.496,63.3115)"
         id="path2880" />
      <path
         style="fill:#ddb255;fill-rule:nonzero;stroke:none"
         d="M 5.329,0.8301 C 7.389,0 9.441,0.0215 11.487,0.892 c 2.046,0.871 3.484,2.337 4.313,4.397 0.83,2.061 0.81,4.113 -0.061,6.159 -0.871,2.046 -2.337,3.484 -4.398,4.312 C 9.254,16.602 7.189,16.587 5.143,15.716 3.097,14.844 1.66,13.379 0.83,11.318 0,9.258 0.021,7.205 0.892,5.159 1.762,3.114 3.242,1.671 5.329,0.8301 z"
         transform="translate(259.399,99.123)"
         id="path2882" />
      <path
         style="fill:#ffffff;fill-rule:nonzero;stroke:none"
         d="m 0,99.95 c 10.8955,8.005 31.8574,22.279 57.1532,33.919 L 57.1532,0 0,22.98 0,99.95 z"
         transform="translate(66.7188,201.661)"
         id="path2884" />
      <path
         style="fill:#ffffff;fill-rule:nonzero;stroke:none"
         d="M 0,180.129 C 27.093,167.336 48.882,151.792 58.08,144.818 L 58.08,0 0,23.352 0,180.129 z"
         transform="translate(183.653,154.238)"
         id="path2886" />
    </g>
  </g>
</svg>
