<svg xmlns="http://www.w3.org/2000/svg" viewBox="0 0 512 581">
  <path fill="#040607" d="M251 579c-31-13-59-30-86-50A424 424 0 0 1 32 350 460 460 0 0 1 18 52l4 2c37 15 67 21 105 19 34-3 64-11 88-26 8-5 15-10 21-16 10-9 16-18 19-29l1-2v2c6 16 20 32 40 45a194 194 0 0 0 105 26l23-1a194 194 0 0 0 70-20l4 17a466 466 0 0 1-10 257 415 415 0 0 1-232 255l-5-2z"/>
  <path fill="#ea202c" d="M251 563A400 400 0 0 1 33 312a441 441 0 0 1-6-243l2 1 15 5a236 236 0 0 0 181-21 104 104 0 0 0 30-30l1-2 2 3 12 15 17 14a230 230 0 0 0 198 15 499 499 0 0 1 13 127 435 435 0 0 1-166 325 383 383 0 0 1-76 44l-5-2z"/>
  <path fill="#fefefe" d="M253 408a130 130 0 1 1 11-260 130 130 0 0 1-11 260z"/>
  <path fill="#263a54" d="M248 546a373 373 0 0 1-124-99A416 416 0 0 1 36 94c1-9 1-8 2-8l4 1a244 244 0 0 0 96 8 232 232 0 0 0 87-26 118 118 0 0 0 31-26l1 1a137 137 0 0 0 56 37 238 238 0 0 0 108 15 245 245 0 0 0 53-10l2 8a428 428 0 0 1-87 352 417 417 0 0 1-133 104l-8-4zm-18-141 3 1a133 133 0 0 0 49 0v114l3-3c16-9 30-20 45-31l4-4v-98l2-1a135 135 0 0 0 50-76v121l3-4c18-23 34-49 47-76l2-5V103l-1 1a334 334 0 0 1-49 2h-2v71a13753 13753 0 0 1-1 68l-6-17c-9-22-24-41-43-55l-2-2V98h-3c-17-5-35-11-47-18l-2-1v70h-1a175 175 0 0 0-32-1l-19 2V79l-2 1c-13 7-30 13-47 18h-3v77l-3 2a131 131 0 0 0 0 201l3 2v102l4 4c14 11 29 22 44 31l4 3V405zm22-6a122 122 0 1 1 14-243 122 122 0 0 1-14 243zm13-2a118 118 0 0 0 110-93 120 120 0 0 0-18-93 119 119 0 1 0-92 186zm-12-12a108 108 0 0 1-54-197 107 107 0 0 1 86-15 90 90 0 0 1-1 16l-3-1c-8-2-14-3-22-3l-16 2a93 93 0 0 0-54 151 116 116 0 0 0 24 20 92 92 0 0 0 72 8v16h-1a104 104 0 0 1-31 3zm56-21v-9l3-2a93 93 0 0 0 38-67v-1h-15v25l-2 3a74 74 0 0 1-13 20l-1 1V189l5 3 21 21a107 107 0 0 1-36 160v-9zm41-95-1-8a91 91 0 0 0-14-35v44h15zm-80 9v-82l13 3h2v144l6-3a74 74 0 0 0 18-14l1 8v9l-3 1a82 82 0 0 1-36 15h-1zm-26 79a33 33 0 0 1-12-7c-3-3-5-6-6-10v-35h13v30l1 1c1 3 4 4 7 3 2 0 3-1 3-2l1-1v-20a334 334 0 0 0-1-23l-12-13a219 219 0 0 1-12-15v-28c0-30-1-28 1-32s5-6 10-7h12c7 2 12 7 13 14l1 18v16h-13v-13l-1-14c-3-2-7-2-9 0l-1 19v18a506 506 0 0 1 22 27c2 3 2 1 2 34l-1 32c-1 5-5 7-11 8h-7zm-27-8-8-5-2-2v-58h-18l1 9a71 71 0 0 0 12 26h-15l-2-4a81 81 0 0 1-9-46 83 83 0 0 1 43-64 7709 7709 0 0 1-2 144zm-10-98v-21l-1 1a71 71 0 0 0-17 40h18v-20zm81 26v-12l5 1h5c2 1 3 3 4 6v11c-1 3-3 5-5 6h-9zm9 6 1-5c0-5-1-7-4-7h-2v13h2l3-1zm7-6v-12h11v6h-7v3h3l3 1v4h-6v5h7v5h-11zm-178-10V106h-2a443 443 0 0 1-49-2l-1-1v240l2 3 11 22a402 402 0 0 0 39 60V267zm47 268h1-1zm165 0h1-1zm-171-5c-1 0-1 0 0 0zm178 0c1 0 1 0 0 0zm-180-2c-1 0-1 0 0 0v1-1zm182 1v-1c1 0 1 0 0 0v1zm-184-2c-1 0 0 0 0 0zm186 0zm1-1c1 0 1 0 0 0 0 1 0 1 0 0zm-191-2c-1-1-1-1 0 0zm194 0c1-1 1-1 0 0zm-196-1h1-1zm197 0h1-1zm-198-1h1-1zm199 0h1-1zm-200-1h1-1zm201 0h1-1zm-202-1c0-1 0-1 0 0zm204 0c0-1 0-1 0 0zm-205-1c-1-1-1-1 0 0zm206 0c1-1 1-1 0 0zm-208-1v-1l1 1h-1zm210 0v-1 1h-1 1zm-211-2h-1 1v1-1zm212 0c1 0 0 0 0 0v1-1zm-214-1h1-1zm215 0h1-1zm-216-1-1-1h1v1zm218 0 1-1-1 1zm-220-2-1-1 1 1c0 1 0 0 0 0zm222 0 1-1-1 1v1-1zm-224-2h-1 1v1-1zm226 0c1 0 0 0 0 0v1-1zm-228-2h-1 1v1-1zm230 1v-1h1-1v1zm-233-3-1-1 1 1 1 1-1-1zm236 0 1-1-1 1-1 1 1-1zm-240-4-1-1 1 1 2 2-2-2zm243 0 2-1-1 1-2 2 1-2zm-220 1h1-1zm197 0h1-1zm-198-2c-1 0 0 0 0 0v1-1zm200 1v-1 1zm-204-4zm208 0zm-233-3-3-3 3 3 3 3-3-3zm258 0-3 3zm-235 1-1-1 1 1zm212 0 1-1-1 1zm-215-3h-1 1v1-1zm218 0h1-1zm-222-4-1-1 1 1v1-1zm226 0 1-1v1l-1 1v-1zm-249-1-1-1 1 1 1 1-1-1zm272 0 1-1-1 1-1 1 1-1zm3-4 1-1v1l-1 1v-1zm-279 0v-1 1l1 1-1-1zm-2-2-1-1h1l1 1h-1zm283 0 1-1h1l-1 1h-1zm-285-3h-1 1l1 1-1-1zm288 0c1 0 0 0 0 0l-1 1 1-1zm-20-1h1-1v1-1zm-249 0v-1l1 1v1l-1-1zm-21-1 1 1-1-1zm292 0-1 1 1-1zm-294-2h1v1l-1-1zm295 1 1-1-1 1zm-19-2h1-1v1-1zm-277 0v-1 1h1-1zm20 0v-1l1 1h-1zm278 0h-1 1zm-299-2c-1 0-1 0 0 0v1-1zm300 1v-1s1 0 0 0v1zm-19-2v1-1zm-262 0zm-21 0h1-1zm303 0h1-1zm-304-2 1 1-1-1zm305 0h1l-1 1v-1zm-285 0c-1-1-1-1 0 0zm266 0c1-1 1-1 0 0zm-287-1h1-1zm307 0h1-1zm-308-1c0-1 0-1 0 0h1-1zm309 0h1c0-1 0-1 0 0h-1zm2-1v-1 1h-1 1zm-312 0v-1 1zm-1-2 1 1-1-1zm313 1 1-1-1 1zm-314-2v1-1zm-1-1h1-1zm317 0h1-1zm-318-1h1-1zm319 0h1-1zm-319-1c-1 0-1 0 0 0zm320 0c1 0 1 0 0 0zm-323-3h1-1zm325 0h1-1zm-326-2c-1 0-1 0 0 0zm328 0s0 1 0 0zm-331-3v-1 1zm-1-1c0-1 0-1 0 0h1-1zm335 0h1c0-1 0-1 0 0h-1zm-335-1c-1-1-1-1 0 0zm-3-4c-1-1-1-1 0 0zm342 0c0-1 0-1 0 0zM13 289zm-2-6s0-1 0 0zm490 0s0-1 0 0zm-490-2zm490 0zm-491-2c1 0 1 0 0 0zm491 0h1-1zm-491-3zm492 0zM9 275h1-1zm493 0zM8 269v-1 1zm496 0v-1 1zM8 267v1-1zm496 0v1-1zM8 266v1-1zm496 0v1-1zm0-1c0 1 0 0 0 0zM7 264h1-1zm497 0h1-1zM7 262s0-1 0 0zm498 0s0-1 0 0zM7 260v1-1zm498 0v1-1zM7 259c0 1 0 0 0 0zm498 0c0 1 0 0 0 0zm0-1h1-1zM6 257zm500 0c0-1 0-1 0 0zM6 255v1-1zm500 0v1-1zM6 254zm500 0zM5 253h1-1zm501 0c1 0 0 0 0 0zM5 251v1-1zm502 0v1-1zM5 250zm502 0zM5 249v-1 1zm502 0v-1 1zM5 247v1-1zm502 0v1-1zM4 246h1-1zm503 0c0-1 0-1 0 0 1 0 1 0 0 0zM4 244v1-1zm504 0v1-1zM4 243c0-1 0-1 0 0zm504 0c0-1 0-1 0 0zM4 241c0 1 0 0 0 0zm504 0c0 1 0 0 0 0zM4 239v1-1zm504 0v1-1zM3 238v-1 1zm505 0 1-1v1h-1zM3 236zm506 0zM3 234v1-1zm506 0c0 1 0 0 0 0zm-493-1c0-1 0-1 0 0zm-13-1v1-1zm506 0v1-1zM3 230v1-1zm506 0v1-1zm-493-1zm480 0zM2 228v1-1zm508 0v1-1zm-494-1c0 1 0 0 0 0zm480 0c0 1 0 0 0 0zM2 226v1-1zm508 0v1-1zM2 224c0 1 0 0 0 0zm508 0c0 1 0 0 0 0zM2 222v-1 1zm508 0v-1 1zm-495-1zm482 0zM1 219h1v1l-1-1zm509 0v1-1zm-495 0v-1 1zm482 0v-1 1zM1 217v-1 1zm510 0v-1 1zm-496-1zm482 0zM1 214v-1 1zm510 0v-1 1zm-497-1v1-1zm483 0h1v1l-1-1zM1 211v-1 1zm510 0v-1 1zm-497-1v1-1zm484 0v1-1zM1 207c0-1 0-1 0 0v1-1zm510 0v-1 1c0 1 0 0 0 0zm-497 0c0 1 0 0 0 0zm484 0c0 1 0 0 0 0zm-484-3v-1 1zm484 0v-1 1zM0 203l1-1v2l-1-1zm511 0 1-1v2l-1-1zm-497-4v1-1zm484 0v1-1zM0 198v-1 2-1zm512 0v-1 2-1zm-499-4v-1 1c0 1 0 0 0 0zm486 0v-1 1c0 1 0 0 0 0zM0 190v-1a28 28 0 0 1 0 1zm512 0v-1a28 28 0 0 1 0 1zM13 179v-3a225 225 0 0 1 0 3zm486 0v-3a225 225 0 0 1 0 3zM0 171v-1a28 28 0 0 1 0 1zm512 0v-1a28 28 0 0 1 0 1zm-499-6v-1 1zm486 0v-1 1zM0 163v-1 2-1zm512 0v-1 2-1zm-498-4s0-1 0 0zm484 0s0-1 0 0zM0 158h1v1l-1-1zm511 0h1v1l-1-1zm-497-3v-1 1zm484 0v-1 1zm13-1s0-1 0 0v1-1zM1 154s0-1 0 0v1-1zm13-3c0 1 0 0 0 0zm484 0c0 1 0 0 0 0zM1 151v-1 1zm510 0v-1 1zM1 147v1-1zm13 1zm484 0zm13-1v1-1zm-497-2c1 0 1 0 0 0zm483 0h1-1zM1 145v-1 1zm510 0v-1 1zm-496-3v1-1zm482 0v1-1zM1 142l1-1v1H1zm509 0v-1 1zM2 140v-1 1zm13 0zm482 0zm13 0v-1 1zm-495-2v-1 1zm482 0v-1 1zM2 137c0 1 0 0 0 0zm508 0c0 1 0 0 0 0zM2 135zm508 0zM2 133s0-1 0 0zm508 0s0-1 0 0zm-494-2zm480 0zM3 131v-1 1zm506 0v-1 1zm-493-2v1-1zm480 0v1-1zM3 129c0-1 0-1 0 0zm506 0c0-1 0-1 0 0zM3 127zm506 0zm-493-1c0-1 0-1 0 0zm480 0c0-1 0-1 0 0 0 0-1 0 0 0zM3 125c0 1 0 0 0 0zm506 0c0 1 0 0 0 0zM3 123v1-1zm505 0h1v1l-1-1zM4 122v-1 1zm504 0v-1 1zM4 120zm504 0zM4 119v-1 1zm504 0v-1 1zM4 117zm504 0zM4 115h1v1l-1-1zm503 0v1-1zM5 114s0-1 0 0zm502 0zM5 112v1-1zm502 0v1-1zM5 111zm502 0zM5 110c0-1 0-1 0 0zm502 0c0-1 0-1 0 0zM5 108h1v1l-1-1zm501 0v1-1zM6 107zm500 0zM6 106c0-1 0-1 0 0zm500 0c0-1 0-1 0 0zM6 104v1-1zm500 0v1-1zM6 103c1 0 0 0 0 0 0 1 0 0 0 0zm499 0h1-1zM7 102zm498 0zM7 101v-1 1zm498 0v-1 1zM7 99v1-1zm498 0v1-1zM7 98v1-1zm498 0v1-1zM7 97h1-1zm497 0h1-1zM8 96zm496 0zM8 94v-1 1zm496 0v-1 1zM8 93v-1 1zm496 0v-1 1zM8 91h1v1l-1-1zm495 0v1-1zm0-1v1-1zm0-1v1-1zm0-1v1-1zM9 87v1-1zm493 0h1v1l-1-1zM9 86h1-1zm493 0c0 1 0 0 0 0zm-393-2zm291 0zm-300 0h1-1zm21 0c1 0 0 0 0 0-1 0-1 0 0 0zm270 0h1-1s-1 0 0 0zm20 0h1-1zM96 84zm29 0h1-1zm261 0h1-1zm30 0zM93 83v1-1zm35 0h1v1l-1-1zm255 0h1l-1 1v-1zm36 0h1l-1 1v-1zm83 0v1-1zM90 83zm41 0h1-1zm249 0h1-1zm42 0zM87 83h1-1zm47 0zm244 0zm46 0h1-1zM85 83h1-1zm342 0c-1 0-1 0 0 0zm-289 0zm236 0zm-234-1zm232 0zM11 80v1-1zm92-7h2-2zm14 0h2-2zm276 0h2-2zm14 0h2-2zM98 73h2-2zm25 0h1c1 0 0 0 0 0h-1zm265 0h1-1s-1 0 0 0zm24 0h2-2zM95 73h1-1zm32 0h1-1zm257 0h1-1zm32 0h1-1zM92 72h1-1zm38 0h1-1zm251 0h1-1zm38 0h1-1zM90 72s-1 0 0 0zm43 0c-1 0-1 0 0 0zm246 0h1-1zm43 0c1 0 0 0 0 0zM88 72c-1 0-1 0 0 0zm47 0s-1 0 0 0zm242 0c1 0 0 0 0 0zm47 0h1-1zM85 72h1-1zm52 0c1 0 0 0 0 0zm238 0s-1 0 0 0zm51 0h1-1zM84 72c0-1 0-1 0 0 0 0-1 0 0 0zm55 0c0-1 0-1 0 0 0 0-1 0 0 0zm234 0c0-1 0-1 0 0 1 0 0 0 0 0zm55 0c0-1 0-1 0 0zM82 71zm58 0h1-1zm231 0c1 0 1 0 0 0zm59 0zM80 71h1-1zm62 0h1-1zm227 0h1-1zm62 0h1-1zM79 71zm65 0zm224 0zm65 0zM77 71h1-1zm68 0h1-1zm221 0h1-1zm68 0h1-1zM13 70v1-1zm63 0v1-1zm71 0v1-1zm218 0v1-1zm71 0v1-1zM75 70c-1 0-1 0 0 0zm73 0h1-1zm216 0c-1 0-1 0 0 0zm73 0h1-1zM73 70h1-1zm76 0h1-1zm213 0h1-1zm76 0h1-1zM72 70zm79 0s-1 0 0 0zm210 0zm79 0zM71 70zm370 0zm57-1h1v1l-1-1zM70 69v1-1zm83 0v1-1zm206 0v1-1zm83 0v1-1zM67 69h1-1zm88 0h1-1zm201 0h1-1zm88 0h1-1zM66 69h1-1zm90 0h1-1zm199 0h1-1zm90 0h1-1zM65 69h1-1zm92 0h1-1zm197 0h1-1zm92 0h1-1zm-287-1c-1 0-1 0 0 0zm194 0h1-1zM62 68h1-1zm387 0h1-1zM239 42h1l-1 1v-1zm33 0 1 1-1-1zm11-4c0-1 0-1 0 0h1-1zm-1-1h1-1zm-53 0h1c0-1 0-1 0 0h-1zm16 0c1-1 1-1 0 0zm22 0c-1-1-1-1 0 0zm-36-1v-1 1h-1 1zm50 0c1 0 1 0 0 0zm-34-1c0-1 0 0 0 0zm18 0s0-1 0 0c0 0 1 0 0 0zm-33 0 1-1-1 1zm47 0v-1h1v1h-1zm-45-2 1-1-1 1v1-1zm43 0v-1l1 1v1l-1-1zm-38-5 1-1 1-1-1 1-1 1zm33-1-1-1 1 1 1 1-1-1zm-30-2-1 1 1-1zm28 0 1 1-1-1zm-27-1c0-1 0-1 0 0zm26 0c0-1 0-1 0 0zm-25-1v-1 1zm24 0v-1 1z"/>
</svg>
