<svg xmlns="http://www.w3.org/2000/svg" viewBox="0 0 275 270">
  <path fill="#008349" d="M135 269A202 202 0 0 1 12 147 201 201 0 0 1 5 37l1-1A70 70 0 0 0 62 0h1a144 144 0 0 0 82 22 141 141 0 0 0 68-22v1a70 70 0 0 0 57 35l1 1v2a201 201 0 0 1-134 231l-2-1z"/>
  <path fill="#fff" d="M136 256A189 189 0 0 1 15 47h4a82 82 0 0 0 47-31l3 2a149 149 0 0 0 86 15 151 151 0 0 0 54-17v1a83 83 0 0 0 51 31l1 3a190 190 0 0 1-61 169 189 189 0 0 1-63 37l-1-1zm2-12a173 173 0 0 0 89-75 176 176 0 0 0 23-111v-1h-2a94 94 0 0 1-40-24l-2-2-1 1a164 164 0 0 1-136-1l-1 2a94 94 0 0 1-42 24l-1 2a178 178 0 0 0 58 152 177 177 0 0 0 55 33zm-31-33v-1h1l4-2 5-7a151 151 0 0 0 8-19 211288 211288 0 0 1 15-33l3-7h1l5 11a21739 21739 0 0 0 26 55l4 2 1 1v1h-33v-2h1l5-1 1-1v-3a71 71 0 0 0-4-10l-1-3h-24l-1 4-3 5a10 10 0 0 0 0 5l2 2 3 1 4 1v2h-23v-1Zm40-23a5330 5330 0 0 0-11-20l-4 8-3 7a3462 3462 0 0 1-2 5 519 519 0 0 0 20 0zm-62-55h-1l-12-3c-6-2-11-6-15-12a36 36 0 0 1-1-38c4-6 9-11 16-15a37 37 0 0 1 32 0l6 1c2 0 3-1 4-4h2v23h-2l-2-4c-2-6-6-10-11-13a21 21 0 0 0-18 0l-8 7c-3 4-5 10-6 16v6a54 54 0 0 0 4 21l4 5c3 3 8 5 13 5 4 1 9 0 12-2a39 39 0 0 0 13-10v6h-1l-3 3c-5 4-9 6-15 7l-7 1h-4zm84-13v-13h2v1l5 12c4 4 8 7 13 9l11-1 5-6c1-3 1-7-2-10l-4-4-8-4c-6-2-8-4-11-6-5-3-9-8-10-13v-4c-1-5 1-10 5-14 3-3 7-5 12-6h8l8 3 3 1 2 1 2-1 1-3v-1h2v1a3589 3589 0 0 0 0 21v1h-2c-1-6-3-9-6-13-3-3-6-5-10-6h-7l-5 3-2 2v7l6 6 9 5 9 5c6 3 9 6 10 10 2 3 2 5 2 8v4c0 3-2 6-4 9l-4 4-10 4a31 31 0 0 1-18-2c-3-1-4-2-5-1l-3 1-2 2v1h-2v-13z"/>
</svg>
