<svg xmlns="http://www.w3.org/2000/svg" xml:space="preserve" fill-rule="evenodd" clip-rule="evenodd" image-rendering="optimizeQuality" shape-rendering="geometricPrecision" text-rendering="geometricPrecision" viewBox="0 0 11979 11979">
  <defs>
    <style>
      .fil0{fill:#373435}.fil1{fill:#fefefe}.fil3{fill:#373435;fill-rule:nonzero}
    </style>
  </defs>
  <g id="Layer_x0020_1">
    <path d="M5989 0a5989 5989 0 1 1 0 11978A5989 5989 0 0 1 5989 0zm0 374a5615 5615 0 1 1 0 11230 5615 5615 0 0 1 0-11230z" class="fil0"/>
    <path d="M5989 374a5615 5615 0 1 1 0 11230 5615 5615 0 0 1 0-11230zm0 1588a4045 4045 0 1 1 0 8092 4045 4045 0 1 1 0-8092z" class="fil1"/>
    <path fill="#00bbf1" d="M5989 1962a4045 4045 0 1 1 0 8092 4045 4045 0 1 1 0-8092zM4145 7583a2425 2425 0 0 1 1694-3995v3950h-750V6308h-748c54 297 186 567 375 788l-570 487zm944-1875V4595a1673 1673 0 0 0-748 1113h748zm3551 1278a518 518 0 0 0-493-678H6890v2378a2833 2833 0 0 0 1751-1700zM6139 2436a3576 3576 0 0 1 3020 1917c88 168 209 435 239 625 84 540-294 1029-730 1029 448 0 812 489 730 1029-23 145-105 347-168 482a3578 3578 0 0 1-3091 2061V2436zm750 893v2378h1256a519 519 0 0 0 494-678 2833 2833 0 0 0-1751-1700zM5839 9579a3575 3575 0 0 1 0-7144v751a2825 2825 0 0 0 0 5642v751z"/>
    <g id="_565687440">
      <path d="m3421 10390-91 76c-80-12-163-49-247-111-40-29-83-68-131-118a417 417 0 0 1-102-272c-1-94 28-182 88-264 48-66 99-117 154-153s120-58 194-64c123-10 249 31 377 124 82 59 142 130 182 212a1770 1770 0 0 0-104 92l-15-11c1-44-9-86-29-127s-47-74-82-99c-57-41-115-60-176-57-61 4-118 24-172 60s-101 82-141 137c-65 89-97 178-96 266a316 316 0 0 0 248 286c47 11 91 14 133 9l10 15zm930 476a544 544 0 0 1-388-29 495 495 0 0 1-283-265 454 454 0 0 1 13-367 452 452 0 0 1 286-268c124-37 253-27 387 30a519 519 0 0 1 251 205c45 74 67 145 65 215a534 534 0 0 1-159 376c-50 47-107 81-171 103zm-70-146c63-51 117-128 161-231 24-56 38-115 42-175s-6-116-31-166-67-88-125-112c-54-23-106-29-156-17-50 11-93 33-131 65a652 652 0 0 0-159 244c-24 57-38 114-41 171-3 58 8 110 33 158 26 48 67 84 126 109 94 40 187 24 281-46zm740 63-25-74c-2-6-5-9-9-10s-7 2-8 7l-21 117-21 117-7 36c-6 36-11 82-16 140l-53-14-53-13-54-8-54-7 7-24 8-32 7-26 8-28c15-55 34-142 56-257l22-119 22-120c12-62 28-159 49-292l90 22 94 16 95 16c105 20 174 43 207 68 68 59 94 131 78 214-12 62-40 110-85 144s-100 51-165 52c22 67 75 205 161 414l32 84-59-15c-27-7-46-12-59-14-39-8-79-13-120-17l-99-298-27-79zm13-339-20 103c-8 42-15 73-21 95 71 14 126 8 165-16 38-25 64-69 76-132 5-26 7-48 7-67 0-27-6-48-15-65a93 93 0 0 0-39-37c-16-9-35-16-57-21l-66-15-30 156zm709-125 68-4 71-5c64-2 113-3 146-1 78 4 140 14 187 31 52 19 95 47 128 84 76 78 116 179 120 301 3 76-8 143-31 203-23 59-62 116-117 168-46 45-97 76-150 95s-116 29-189 32c-96 3-168 5-216 5l-33-1-117 8c3-156 1-312-4-467l-5-136-6-97-7-98-5-59-5-58c74 0 129 0 165-2zm171 828c66-2 119-12 161-30 41-18 77-51 109-100 46-74 68-170 64-287-2-48-11-96-27-144s-39-88-69-118c-33-35-70-58-110-68-41-11-90-15-148-13l-46 4-48 5c0 150 5 373 15 669l3 84c22 1 54 0 97-1zm1605-252a548 548 0 0 1-331 205 494 494 0 0 1-385-48 458 458 0 0 1-206-305c-33-144-9-272 74-385a559 559 0 0 1 331-203c120-28 227-22 323 19 80 33 139 78 179 136 41 57 71 123 88 197a486 486 0 0 1-74 384zm-143-77c21-79 19-173-6-282-14-59-37-115-69-166s-73-90-123-116-105-32-167-17c-57 13-103 39-136 78-34 38-56 81-67 130-17 76-13 173 15 291 14 60 36 114 68 163 31 48 71 85 120 109s104 28 166 14c99-23 166-90 200-203zm698-556c58-27 117-32 177-15 63 19 108 57 135 114 28 61 32 125 10 192-14 45-52 91-115 138-19 13-46 28-80 44l-89 39a1825 1825 0 0 0-194 93c-13-39-35-97-67-173l-151-334c-17-36-71-145-163-326 63-27 109-46 138-60l88-43 86-42c44-21 87-33 129-38s80 2 115 20 63 49 84 95c25 53 26 106 4 157s-59 94-112 129l4 9zm-62-46c21-46 19-95-7-149-8-17-21-36-39-55s-34-31-49-33c-36-9-71-5-106 11-25 11-43 22-56 31 31 73 55 129 73 166l58 125c34-16 60-30 79-43s35-31 47-52zm120 468c50-23 78-58 83-104 6-46 1-86-16-122-53-114-133-147-240-97-17 8-31 15-40 21 17 39 43 98 80 176l36 75 37 77 31-14 30-13zm541-182-55-243c-61-279-120-517-177-716l15-8 17-9 14-8 18-16 18-18 22 12c260 170 525 337 796 500l15 7 7 10-48 31-49 32c-30 22-59 45-86 70-103-76-182-132-236-167l-61 42-61 42c-28 20-71 53-129 99l6 19 39 132c14 46 28 87 43 124a355 355 0 0 0-101 74l-6-8zm0-426 198-144c-72-49-165-110-280-182 26 116 52 221 79 314l3 12zM1721 7264l118-14c61 54 110 130 148 228 17 46 33 103 45 170a416 416 0 0 1-64 284 430 430 0 0 1-218 173c-76 29-147 44-213 45-66 0-132-17-198-52a563 563 0 0 1-249-310c-36-94-48-186-36-277 15-2 37-4 63-9l74-12 7 17a281 281 0 0 0 87 394c53 30 111 45 176 44s129-14 193-38c103-39 178-96 225-170a309 309 0 0 0-54-375c-33-35-69-62-106-80v-18z" class="fil3"/>
      <path id="1" d="M923 7224c-3-52-7-89-11-109s-13-56-27-107c26-4 65-9 116-14 50-6 92-11 123-17l154-25 249-44 82-15 83-16-17-72c-6-35-24-111-54-226 12 1 32-1 57-5 26-4 44-9 56-14l32 225c3 20 10 49 18 89l17 88c4 24 12 61 23 109-114 12-257 33-429 63l-79 13-79 13c-32 6-81 15-145 29l-143 30-26 7z" class="fil3"/>
      <path id="2" d="M999 5556a1937 1937 0 0 0 132 6l74 5 74 4c103 6 182 18 238 35s104 57 144 121c44 67 65 152 61 255-2 58-11 112-27 164-15 51-41 96-75 134-35 38-80 64-136 78a853 853 0 0 1-165 10l-89-2-76-1-169-6-76-2-76-2h-58c9-52 13-89 14-111s-1-58-7-107c7 0 17 1 32 4l34 4a5153 5153 0 0 0 565 22c40-7 70-14 92-22 21-8 42-23 63-44 40-39 61-90 63-151s-9-111-33-149-64-70-120-95c-39-16-131-27-277-32-179-6-314-8-404-3 8-32 12-55 13-68s-2-36-8-69l40 5 54 6 48 4 53 5z" class="fil3"/>
      <path id="3" d="M1360 4860c14-62 47-112 98-150 54-38 111-50 174-36 66 15 118 52 158 111 27 39 39 98 38 177-1 23-6 53-14 90a4928 4928 0 0 1-48 190c-6 25-13 63-22 115-39-14-98-32-178-53-157-39-275-68-356-86-39-9-158-33-357-72a4010 4010 0 0 0 58-242l20-94c11-47 27-89 49-125s51-62 86-79c36-17 78-20 127-8 58 13 100 45 127 94 26 49 37 105 32 168l10 2zm-74 21c-23-45-63-73-121-87-19-4-41-5-67-3s-45 8-57 19c-29 23-48 53-56 90-6 26-10 47-11 63 77 21 135 35 175 45l134 31c9-36 13-66 15-88 1-23-3-46-12-69zm444 193c12-54 2-97-31-130-32-33-68-54-106-62-123-28-198 14-225 129l-8 44a8206 8206 0 0 0 270 64l83 18 9-33 8-31z" class="fil3"/>
      <path id="4" d="m2064 4220-149-200c-169-229-320-424-453-582l10-13 12-15 10-13 10-22 9-24 25 2c307 50 617 94 931 133h16l11 6-32 48a994 994 0 0 0-81 148c-126-28-220-47-284-56l-39 63-39 63-78 143 13 14 89 105c31 36 61 68 90 96a344 344 0 0 0-63 109l-9-5zm-173-389 122-212c-85-16-195-33-330-53 70 96 137 181 200 255l8 10z" class="fil3"/>
      <path id="5" d="M2293 2632c28 24 70 61 124 111l124 110a27724 27724 0 0 1 130 111l83 68 83 68-37 37-39 41-34 43-34 44-69-66a20685 20685 0 0 0-406-369l-132-109-74 91c-29 41-54 76-73 107-7-11-20-25-39-41l-37-30-8-4-8-4a5366 5366 0 0 0 233-252l91-104c15-17 36-44 61-79l66-85a283 283 0 0 0 91 79c-61 51-118 107-169 165l70 67z" class="fil3"/>
      <path id="6" d="M2514 2119c45-26 76-46 93-59 16-13 43-38 80-76l68 95a4299 4299 0 0 0 168 225l156 200 52 65 53 66 56-49c28-22 86-73 174-154 5 11 15 27 32 48 16 21 29 35 39 43l-183 133-70 58-70 57c-20 15-48 39-85 72-64-95-150-212-258-350l-49-64c-21-28-37-50-49-64-20-26-51-64-94-114l-94-112-18-20z" class="fil3"/>
      <path id="7" d="m3167 1622 92-45c40-19 72-35 98-50l139-81 123-72a1432 1432 0 0 0 56 100c-120 54-211 98-275 134a3502 3502 0 0 0 101 188l35 65 262-157c9 27 16 46 23 58 6 11 16 24 32 41-81 37-152 73-214 107l-29 14-30 16 83 149 82 147c72-40 159-95 262-166a1432 1432 0 0 0 56 100l-108 55-107 55c-15 9-39 22-69 41l-68 40-103 61-16-35-16-34-57-109-60-113-48-88-48-89-76-137a2731 2731 0 0 0-110-182l-9-16z" class="fil3"/>
      <path id="8" d="m4295 1302 58 157 58 156 31 78 32 80c8 22 22 55 41 99s33 77 41 99a1771 1771 0 0 0-153 56l-50 23-30-91a14522 14522 0 0 0-186-516c-14-37-36-90-65-158-24 9-60 25-108 46l-116 60c-1-13-5-31-14-54-8-20-14-35-19-43l-5-7-5-7 96-32c91-32 167-59 228-83l129-49c22-8 52-22 92-40 40-19 73-33 99-43 3 19 8 36 14 52 8 20 17 39 29 59-79 17-154 39-227 67l31 92z" class="fil3"/>
      <path id="9" d="m4970 1088 22 123 24 134c8 38 19 84 34 140l32 130 25 96 25 95-52 8a1408 1408 0 0 0-168 40c-17-143-46-304-84-485l-15-70-21-91-18-75c-19-76-35-134-48-175 53-5 89-10 109-14s55-15 105-31l27 178z" class="fil3"/>
      <path id="10" d="m6056 1538-21 117c-69 42-156 67-261 74-49 3-107 1-176-7-42-6-92-25-150-56a432 432 0 0 1-206-347c-6-81 1-153 20-216s55-121 107-174c88-87 211-136 369-147 100-7 192 8 275 45l-10 63-11 74-19 1c-27-34-62-60-103-78-42-19-84-26-127-24-70 5-127 28-171 70s-75 94-93 156-24 128-20 196c8 110 40 199 97 265 31 34 69 59 113 76 44 16 89 23 134 20a384 384 0 0 0 233-115l17 5z" class="fil3"/>
      <path id="11" d="M7048 1727a554 554 0 0 1-385 60 498 498 0 0 1-336-195c-72-98-95-219-70-361 26-145 98-254 219-325 112-64 241-83 384-58 121 22 218 69 290 144 60 62 98 127 112 195a540 540 0 0 1-70 402c-38 57-86 103-144 139zm-102-128c50-64 85-151 105-261 11-60 11-120 1-179-10-60-32-111-68-154-35-43-84-70-146-81-58-10-109-4-155 19-46 22-83 52-112 93-46 63-79 154-100 272-11 61-11 119-1 176s32 105 68 146c35 41 84 67 146 78 100 17 188-18 263-108z" class="fil3"/>
      <path id="12" d="M8319 1832c57 29 97 73 121 131 24 61 22 120-7 177-30 60-79 102-145 127-44 16-104 15-180-6-22-7-50-19-84-36l-85-46-87-47c-23-12-58-28-106-49 23-34 55-88 95-160 76-143 132-251 170-325 19-36 71-146 157-329a2684 2684 0 0 0 220 114c39 18 68 32 86 42 43 22 80 48 109 78 30 30 48 64 56 103s0 80-23 124c-27 53-67 86-121 100s-111 11-170-9l-4 9zm-2-77c49-12 86-44 113-97 9-17 15-38 19-64s3-46-4-60c-15-34-40-59-74-76-24-12-44-21-58-25l-86 159-63 123c33 17 61 28 83 35s45 9 70 5zm-295 384c49 25 94 25 133 1 39-23 68-52 86-88 57-113 34-196-71-249-17-9-31-15-41-19-21 37-50 95-90 172l-37 75-38 76 29 16 28 15z" class="fil3"/>
      <path id="13" d="M9011 1747c19 15 44 38 77 67 33 30 61 53 84 71l129 96 115 84a1169 1169 0 0 0-72 91c-96-90-174-157-231-202-20 24-50 60-88 109l-46 58-46 58 247 180c-21 18-36 33-45 44-7 10-16 25-25 46-66-60-127-112-183-156l-25-21-26-22-105 134-104 133c65 51 151 110 256 177-15 16-35 41-62 76-2 4-4 9-9 14l-92-78a2509 2509 0 0 0-157-125c-29-21-50-36-63-47l-97-71 26-29c11-13 19-23 25-28l79-95 81-99 63-79 63-80 96-123 62-86 62-86 11-14z" class="fil3"/>
      <path id="14" d="M9621 2275c32 41 55 69 70 84 14 14 41 39 82 72l-88 77c-39 33-70 61-93 83-26 23-63 59-114 107l-182 176-59 59-60 60 55 51c25 26 83 79 173 158-11 6-25 19-44 36-19 18-32 33-38 44l-152-169-65-64-64-64c-17-18-44-44-81-78 88-74 195-171 321-293l59-55 58-55 104-105 102-105 18-20z" class="fil3"/>
      <path id="15" d="M10453 3657c40-99 29-196-33-292a303 303 0 0 0-262-143c-88-1-179 28-272 89-47 31-88 69-123 116a300 300 0 0 0-62 218 389 389 0 0 0 52 137 442 442 0 0 0 100 106l7-2c4-1 5-2 6-1l86-56c42-28 99-68 169-120a1101 1101 0 0 0 113 174 2219 2219 0 0 0-313 195c-108-96-188-183-238-261-39-60-68-122-88-186s-27-127-23-189 23-120 55-175c33-55 80-102 143-143 67-44 135-71 202-81 68-11 133-7 195 13 63 20 121 51 175 96s102 100 144 164a643 643 0 0 1 108 311c-59 16-103 30-132 42l-10-15z" class="fil3"/>
      <path id="16" d="m10368 4423 51-59c4-5 6-9 5-13s-5-5-10-3l-111 40c-49 19-87 32-111 40l-35 12c-33 13-76 32-129 56l-14-53-15-52-20-51-21-50 24-6 32-9 26-7 28-7c56-15 140-42 251-80l114-40 115-40c59-21 152-55 278-104l26 89 33 89 33 90c35 101 50 172 45 213-17 89-66 148-146 176-60 21-116 20-167-2s-94-61-128-118c-47 52-140 168-279 347l-57 70-16-59-17-59c-13-37-28-75-45-113l209-234 55-62zm300-158-99 34-92 30c23 68 56 113 96 133 40 21 91 21 152 0 25-9 46-18 62-28 23-14 39-29 48-46 9-16 14-34 13-51 0-18-4-38-11-60l-20-64-150 51z" class="fil3"/>
      <path id="17" d="m10199 4995 240 66c275 76 513 136 716 180v36l1 16 6 24 7 24-21 14c-272 150-544 306-816 468l-13 10-12 2-4-57-5-58c-5-37-12-73-22-109 116-55 202-98 258-130l-8-73c-3-33-6-58-9-74l-26-160-19-3-135-28c-47-9-90-16-129-20a347 347 0 0 0-17-124l10-1zm376 200 34 243c77-40 175-94 293-162-115-32-219-58-314-78l-12-3z" class="fil3"/>
      <path id="18" d="M10285 6084a359 359 0 0 0 6-115c95 16 194 30 297 40 103 11 215 20 336 28l107 7 108 7c27 2 49 3 64 2-8 29-12 48-12 59-1 12 0 33 4 62l-172 137-176 143-167 134-156 121 294 21 150 10c22 2 50 2 84 2l76 1h27a269 269 0 0 0-11 121l-74-9c-64-10-120-17-168-22l-68-7-63-8-69-7-52-5-135-10-281-20 3-14c2-8 3-21 4-37 2-24 2-44 0-58 202-150 376-284 521-404l162-133c-82-9-141-14-178-16l-123-9c-152-11-265-16-341-15l2-8z" class="fil3"/>
      <path id="19" d="M10022 7816a550 550 0 0 1-5-390 488 488 0 0 1 240-305c108-57 230-64 367-19a451 451 0 0 1 291 262c48 120 49 250 4 389a525 525 0 0 1-182 268c-69 51-139 79-209 84a530 530 0 0 1-388-126c-51-45-90-99-117-161zm139-83c57 59 138 106 245 140 58 19 117 27 178 26s115-16 162-45c48-29 81-74 101-133 18-56 19-108 3-156-15-48-41-90-76-123a661 661 0 0 0-257-137c-59-19-117-28-175-26s-109 17-154 46c-46 29-78 74-98 134-31 96-8 188 71 275z" class="fil3"/>
      <circle cx="2222" cy="8865" r="237" class="fil0"/>
      <circle cx="9951" cy="8865" r="237" class="fil0"/>
    </g>
    <g id="_565682712">
      <path d="M4145 7582a2425 2425 0 0 1 1694-3995v3950h-750V6307h-748c54 297 186 567 375 788l-570 487zm944-1875V4594a1673 1673 0 0 0-748 1113h748z" class="fil1"/>
      <path d="M8640 6986a518 518 0 0 0-493-678H6890v2378a2833 2833 0 0 0 1751-1700zM6139 2436a3576 3576 0 0 1 3020 1917c88 168 209 435 239 625 84 540-294 1029-730 1029 448 0 812 489 730 1029-23 145-105 347-168 482a3578 3578 0 0 1-3091 2061V2436zm750 893v2378h1256a519 519 0 0 0 494-678 2833 2833 0 0 0-1751-1700zM5839 9579a3575 3575 0 0 1 0-7144v751a2825 2825 0 0 0 0 5642v751z" class="fil1"/>
    </g>
  </g>
</svg>
